<svg id="svg" version="1.1" xmlns="http://www.w3.org/2000/svg" xmlns:xlink="http://www.w3.org/1999/xlink" width="400" height="400" viewBox="0, 0, 400,400"><g id="svgg"><path id="path0" d="M78.480 58.480 C 78.216 58.744,78.000 59.644,78.000 60.480 L 78.000 62.000 76.100 62.031 C 72.626 62.087,71.081 62.801,70.582 64.582 C 70.206 65.923,69.923 66.206,68.582 66.582 C 66.801 67.081,66.087 68.626,66.031 72.100 L 66.000 74.000 64.480 74.000 C 61.915 74.000,62.000 73.427,62.000 90.680 L 62.000 106.400 60.649 106.400 C 58.285 106.400,58.215 106.699,58.059 117.461 C 57.953 124.795,57.797 127.200,57.429 127.200 C 56.906 127.200,55.200 128.849,55.200 129.354 C 55.200 129.521,54.930 129.927,54.600 130.257 C 54.100 130.757,54.000 132.448,54.000 140.377 L 54.000 149.898 52.388 150.156 C 49.989 150.539,50.000 150.444,50.000 170.597 C 50.000 190.716,49.904 190.000,52.607 190.000 C 53.933 190.000,53.958 190.033,54.078 191.900 L 54.200 193.800 56.100 193.922 C 57.967 194.042,58.000 194.067,58.000 195.393 C 58.000 197.565,58.772 198.000,62.629 198.000 L 66.000 198.000 66.000 261.520 C 66.000 310.391,66.111 325.151,66.480 325.520 C 66.744 325.784,67.644 326.000,68.480 326.000 L 70.000 326.000 70.031 327.900 C 70.087 331.374,70.801 332.919,72.582 333.418 C 73.923 333.794,74.206 334.077,74.582 335.418 C 75.081 337.199,76.626 337.913,80.100 337.969 L 82.000 338.000 82.000 339.520 C 82.000 340.356,82.216 341.256,82.480 341.520 C 83.179 342.219,320.821 342.219,321.520 341.520 C 321.784 341.256,322.000 340.378,322.000 339.568 L 322.000 338.096 324.300 337.924 C 327.380 337.694,328.828 336.928,329.395 335.227 C 329.739 334.196,330.196 333.739,331.227 333.395 C 332.928 332.828,333.694 331.380,333.924 328.300 L 334.096 326.000 335.568 326.000 C 336.378 326.000,337.256 325.784,337.520 325.520 C 337.889 325.151,338.000 310.391,338.000 261.520 L 338.000 198.000 341.371 198.000 C 345.228 198.000,346.000 197.565,346.000 195.393 C 346.000 194.067,346.033 194.042,347.900 193.922 L 349.800 193.800 349.920 191.950 C 350.039 190.117,350.054 190.098,351.653 189.884 C 352.540 189.765,353.386 189.547,353.533 189.401 C 353.981 188.953,354.069 152.632,353.624 151.463 C 353.314 150.648,352.865 150.356,351.612 150.156 L 350.000 149.898 350.000 140.377 C 350.000 132.448,349.900 130.757,349.400 130.257 C 349.070 129.927,348.800 129.496,348.800 129.298 C 348.800 128.788,347.040 127.200,346.474 127.200 C 346.124 127.200,345.995 125.023,345.983 118.900 C 345.959 107.617,345.683 106.421,343.100 106.406 L 342.000 106.400 342.000 90.680 C 342.000 73.427,342.085 74.000,339.520 74.000 L 338.000 74.000 337.969 72.100 C 337.913 68.626,337.199 67.081,335.418 66.582 C 334.077 66.206,333.794 65.923,333.418 64.582 C 332.919 62.801,331.374 62.087,327.900 62.031 L 326.000 62.000 326.000 60.480 C 326.000 59.644,325.784 58.744,325.520 58.480 C 324.821 57.781,79.179 57.781,78.480 58.480 M318.318 70.504 C 323.443 73.164,326.584 75.990,328.371 79.545 C 328.994 80.785,330.020 82.789,330.652 83.999 C 332.257 87.073,332.707 101.693,331.240 103.160 L 330.400 104.000 202.000 104.000 L 73.600 104.000 72.755 103.155 C 71.940 102.340,71.916 102.031,72.069 94.055 L 72.227 85.800 74.550 81.489 C 78.086 74.930,84.922 69.341,90.600 68.370 C 91.480 68.219,142.078 68.119,203.040 68.148 L 313.880 68.200 318.318 70.504 M98.600 76.665 C 97.474 76.971,96.400 78.005,96.400 78.782 C 96.400 79.144,96.184 79.656,95.920 79.920 C 95.656 80.184,95.144 80.400,94.782 80.400 C 91.661 80.400,91.450 89.743,94.533 91.400 C 95.385 91.858,96.317 92.799,96.711 93.600 C 97.478 95.159,98.339 95.474,102.040 95.553 C 105.133 95.618,106.765 94.977,107.405 93.446 C 107.716 92.703,108.541 91.877,109.447 91.400 C 112.679 89.700,112.391 81.339,109.070 80.478 C 108.150 80.240,107.760 79.850,107.522 78.930 C 106.984 76.855,102.285 75.662,98.600 76.665 M126.406 76.756 C 125.481 77.014,124.736 78.024,124.234 79.700 C 124.119 80.085,123.679 80.400,123.257 80.400 C 121.203 80.400,120.600 81.650,120.600 85.903 C 120.600 90.292,120.890 90.993,122.921 91.519 C 123.833 91.756,124.257 92.184,124.602 93.218 C 125.698 96.495,134.300 96.502,135.395 93.227 C 135.739 92.197,136.197 91.739,137.227 91.395 C 140.496 90.302,140.496 81.698,137.227 80.605 C 136.203 80.264,135.737 79.801,135.397 78.791 C 134.691 76.695,130.243 75.688,126.406 76.756 M154.600 76.665 C 153.448 76.978,152.509 77.913,152.230 79.023 C 152.086 79.597,151.597 80.086,151.023 80.230 C 147.447 81.128,147.447 90.872,151.023 91.770 C 151.597 91.914,152.086 92.403,152.230 92.977 C 153.105 96.463,163.168 96.557,163.678 93.083 C 163.751 92.586,164.438 91.916,165.378 91.425 C 168.736 89.670,168.429 81.096,164.977 80.230 C 164.403 80.086,163.914 79.597,163.770 79.023 C 163.245 76.932,158.296 75.659,154.600 76.665 M104.274 80.425 C 108.179 81.901,109.175 87.002,106.164 90.102 C 101.927 94.464,95.034 90.677,96.171 84.612 C 96.817 81.169,100.799 79.112,104.274 80.425 M133.175 80.731 C 135.196 81.814,136.082 83.699,135.897 86.520 C 135.393 94.250,124.000 93.751,124.000 86.000 C 124.000 81.246,128.895 78.435,133.175 80.731 M161.765 82.377 C 164.173 84.785,164.150 87.238,161.694 89.694 C 156.888 94.500,149.452 87.912,153.800 82.700 C 156.183 79.844,159.113 79.725,161.765 82.377 M87.474 112.470 L 88.400 113.339 88.400 142.000 L 88.400 170.661 87.451 171.552 C 86.506 172.440,86.442 172.444,74.551 172.322 C 59.728 172.171,59.096 171.920,61.317 167.068 C 62.429 164.640,63.045 161.242,63.395 155.600 C 63.693 150.807,64.252 147.959,65.395 145.408 C 66.661 142.584,66.799 141.826,67.406 134.328 C 67.857 128.759,68.123 127.237,69.017 125.128 C 70.299 122.100,71.180 118.435,71.192 116.080 C 71.200 114.273,72.031 112.214,72.892 111.868 C 74.708 111.137,86.577 111.627,87.474 112.470 M151.474 112.470 L 152.400 113.339 152.400 141.944 L 152.400 170.548 151.530 171.474 L 150.661 172.400 138.056 172.400 C 125.665 172.400,125.436 172.385,124.526 171.530 L 123.600 170.661 123.600 142.056 L 123.600 113.452 124.470 112.526 L 125.339 111.600 137.944 111.600 C 150.335 111.600,150.564 111.615,151.474 112.470 M215.474 112.470 L 216.400 113.339 216.400 141.944 L 216.400 170.548 215.530 171.474 L 214.661 172.400 202.056 172.400 C 189.665 172.400,189.436 172.385,188.526 171.530 L 187.600 170.661 187.600 142.056 L 187.600 113.452 188.470 112.526 L 189.339 111.600 201.944 111.600 C 214.335 111.600,214.564 111.615,215.474 112.470 M279.474 112.470 L 280.400 113.339 280.400 141.944 L 280.400 170.548 279.530 171.474 L 278.661 172.400 266.056 172.400 C 253.665 172.400,253.436 172.385,252.526 171.530 L 251.600 170.661 251.600 142.056 L 251.600 113.452 252.470 112.526 L 253.339 111.600 265.944 111.600 C 278.335 111.600,278.564 111.615,279.474 112.470 M330.982 111.848 C 331.965 112.226,332.799 114.159,332.808 116.080 C 332.820 118.435,333.701 122.100,334.983 125.126 C 335.882 127.249,336.143 128.760,336.616 134.589 C 336.925 138.405,337.434 142.218,337.746 143.063 C 338.058 143.908,338.705 145.663,339.182 146.963 C 339.744 148.490,340.189 151.036,340.440 154.163 C 341.023 161.412,341.522 164.280,342.613 166.665 C 345.073 172.044,344.196 172.400,328.476 172.400 C 317.707 172.400,317.430 172.380,316.526 171.530 L 315.600 170.661 315.600 142.056 L 315.600 113.452 316.470 112.526 C 317.340 111.599,328.923 111.058,330.982 111.848 M119.074 112.870 L 120.000 113.739 120.000 141.944 L 120.000 170.148 119.130 171.074 L 118.261 172.000 106.056 172.000 C 94.076 172.000,93.835 171.984,92.926 171.130 L 92.000 170.261 92.000 142.056 L 92.000 113.852 92.870 112.926 L 93.739 112.000 105.944 112.000 C 117.924 112.000,118.165 112.016,119.074 112.870 M183.074 112.870 L 184.000 113.739 184.000 141.944 L 184.000 170.148 183.130 171.074 L 182.261 172.000 170.056 172.000 C 158.076 172.000,157.835 171.984,156.926 171.130 L 156.000 170.261 156.000 142.056 L 156.000 113.852 156.870 112.926 L 157.739 112.000 169.944 112.000 C 181.924 112.000,182.165 112.016,183.074 112.870 M247.074 112.870 L 248.000 113.739 248.000 141.944 L 248.000 170.148 247.130 171.074 L 246.261 172.000 234.056 172.000 C 222.076 172.000,221.835 171.984,220.926 171.130 L 220.000 170.261 220.000 142.056 L 220.000 113.852 220.870 112.926 L 221.739 112.000 233.944 112.000 C 245.924 112.000,246.165 112.016,247.074 112.870 M311.074 112.870 L 312.000 113.739 312.000 141.944 L 312.000 170.148 311.130 171.074 L 310.261 172.000 298.056 172.000 C 286.076 172.000,285.835 171.984,284.926 171.130 L 284.000 170.261 284.000 142.056 L 284.000 113.852 284.870 112.926 L 285.739 112.000 297.944 112.000 C 309.924 112.000,310.165 112.016,311.074 112.870 M86.946 176.429 C 88.375 177.553,88.356 179.285,86.901 180.718 C 86.297 181.313,85.504 182.457,85.138 183.261 C 84.665 184.302,84.062 184.871,83.037 185.241 C 80.696 186.088,81.074 187.202,83.700 187.194 C 86.238 187.186,86.537 187.015,87.329 185.114 C 88.434 182.460,91.342 182.643,92.691 185.451 C 93.273 186.664,93.738 187.025,95.296 187.475 C 96.529 187.830,97.496 188.432,98.060 189.195 C 100.489 192.481,110.216 192.580,113.610 189.353 C 114.386 188.616,115.877 187.721,116.923 187.365 C 118.433 186.850,118.941 186.437,119.391 185.359 C 120.523 182.650,123.588 182.508,124.668 185.114 C 125.444 186.987,125.262 186.840,127.282 187.220 C 128.227 187.398,129.315 187.665,129.700 187.814 C 130.268 188.035,130.400 187.867,130.400 186.923 C 130.400 185.954,130.163 185.675,128.977 185.246 C 127.971 184.883,127.356 184.302,126.877 183.266 C 126.505 182.460,125.813 181.486,125.340 181.102 C 123.669 179.747,123.453 178.085,124.777 176.762 L 125.938 175.600 137.915 175.600 C 149.426 175.600,149.933 175.632,150.946 176.429 C 152.391 177.566,152.365 179.333,150.881 180.740 C 150.266 181.323,149.514 182.409,149.210 183.154 C 148.817 184.119,148.178 184.720,146.984 185.248 C 145.244 186.018,144.637 188.459,146.351 187.795 C 146.708 187.656,147.773 187.398,148.718 187.220 C 150.738 186.840,150.556 186.987,151.332 185.114 C 152.432 182.460,155.342 182.643,156.691 185.451 C 157.273 186.664,157.738 187.025,159.296 187.475 C 160.529 187.830,161.496 188.432,162.060 189.195 C 164.489 192.481,174.216 192.580,177.610 189.353 C 178.386 188.616,179.877 187.721,180.923 187.365 C 182.433 186.850,182.941 186.437,183.391 185.359 C 184.523 182.650,187.588 182.508,188.668 185.114 C 189.444 186.987,189.262 186.840,191.282 187.220 C 192.227 187.398,193.315 187.665,193.700 187.814 C 194.268 188.035,194.400 187.867,194.400 186.923 C 194.400 185.954,194.163 185.675,192.977 185.246 C 191.971 184.883,191.356 184.302,190.877 183.266 C 190.505 182.460,189.813 181.486,189.340 181.102 C 187.669 179.747,187.453 178.085,188.777 176.762 L 189.938 175.600 201.915 175.600 C 213.426 175.600,213.933 175.632,214.946 176.429 C 216.391 177.566,216.365 179.333,214.881 180.740 C 214.266 181.323,213.514 182.409,213.210 183.154 C 212.817 184.119,212.178 184.720,210.984 185.248 C 209.244 186.018,208.637 188.459,210.351 187.795 C 210.708 187.656,211.773 187.398,212.718 187.220 C 214.738 186.840,214.556 186.987,215.332 185.114 C 216.432 182.460,219.342 182.643,220.691 185.451 C 221.273 186.664,221.738 187.025,223.296 187.475 C 224.529 187.830,225.496 188.432,226.060 189.195 C 228.489 192.481,238.216 192.580,241.610 189.353 C 242.386 188.616,243.877 187.721,244.923 187.365 C 246.433 186.850,246.941 186.437,247.391 185.359 C 248.523 182.650,251.588 182.508,252.668 185.114 C 253.444 186.987,253.262 186.840,255.282 187.220 C 256.227 187.398,257.315 187.665,257.700 187.814 C 258.268 188.035,258.400 187.867,258.400 186.923 C 258.400 185.954,258.163 185.675,256.977 185.246 C 255.973 184.883,255.355 184.301,254.877 183.269 C 254.505 182.465,253.726 181.402,253.147 180.908 C 251.562 179.554,251.445 178.094,252.811 176.728 L 253.938 175.600 265.915 175.600 C 277.426 175.600,277.933 175.632,278.946 176.429 C 280.391 177.566,280.365 179.333,278.881 180.740 C 278.266 181.323,277.514 182.409,277.210 183.154 C 276.817 184.119,276.178 184.720,274.984 185.248 C 273.244 186.018,272.637 188.459,274.351 187.795 C 274.708 187.656,275.773 187.398,276.718 187.220 C 278.738 186.840,278.556 186.987,279.332 185.114 C 280.432 182.460,283.342 182.643,284.691 185.451 C 285.273 186.664,285.738 187.025,287.296 187.475 C 288.529 187.830,289.496 188.432,290.060 189.195 C 292.489 192.481,302.216 192.580,305.610 189.353 C 306.386 188.616,307.877 187.721,308.923 187.365 C 310.419 186.855,310.942 186.434,311.378 185.390 C 312.346 183.074,314.346 182.535,315.491 184.282 C 316.160 185.304,316.211 188.938,316.400 248.777 C 316.587 307.932,316.645 312.198,317.277 312.319 C 319.471 312.742,319.382 315.088,319.600 250.800 L 319.800 191.800 320.732 190.000 C 321.245 189.010,321.830 187.887,322.032 187.505 C 322.640 186.357,322.455 185.834,321.186 185.112 C 320.521 184.733,319.667 183.855,319.288 183.160 C 318.910 182.465,318.015 181.351,317.300 180.684 C 315.657 179.152,315.567 177.599,317.054 176.429 C 318.238 175.497,337.760 175.149,340.840 176.004 C 343.304 176.689,343.960 177.775,342.712 179.107 C 342.149 179.708,341.297 180.980,340.819 181.933 C 340.330 182.909,339.411 183.957,338.716 184.333 C 338.037 184.700,336.923 185.469,336.241 186.041 C 334.200 187.754,333.312 188.051,329.062 188.445 C 322.920 189.015,322.241 189.446,325.374 190.789 C 328.711 192.219,328.428 186.125,328.308 254.041 L 328.200 314.600 327.283 316.400 C 323.264 324.292,320.292 327.264,312.400 331.283 L 310.600 332.200 202.000 332.200 L 93.400 332.200 91.600 331.280 C 86.776 328.815,84.278 327.233,83.615 326.222 C 83.214 325.612,82.388 324.786,81.778 324.385 C 80.767 323.722,79.185 321.224,76.720 316.400 L 75.800 314.600 75.694 254.039 C 75.574 186.026,75.280 192.223,78.696 190.759 C 81.464 189.572,80.448 188.909,75.154 188.450 C 71.126 188.100,68.400 187.271,68.400 186.396 C 68.400 186.186,67.486 185.550,66.368 184.984 C 65.125 184.354,64.077 183.472,63.668 182.711 C 63.301 182.027,62.415 180.801,61.700 179.985 C 58.419 176.244,60.124 175.680,74.846 175.634 C 85.443 175.601,85.935 175.634,86.946 176.429 M116.776 176.378 C 119.107 176.828,119.775 177.702,118.973 179.253 C 118.646 179.884,118.232 180.400,118.053 180.400 C 117.873 180.400,117.319 181.191,116.821 182.158 C 116.182 183.402,115.405 184.180,114.167 184.817 C 113.204 185.312,112.308 186.061,112.174 186.482 C 111.474 188.689,100.305 188.652,99.726 186.440 C 99.618 186.027,98.745 185.286,97.786 184.793 C 96.701 184.235,95.810 183.407,95.428 182.603 C 95.091 181.892,94.530 181.074,94.181 180.784 C 92.021 178.991,92.311 176.997,94.820 176.407 C 96.676 175.970,114.540 175.946,116.776 176.378 M180.776 176.378 C 183.107 176.828,183.775 177.702,182.973 179.253 C 182.646 179.884,182.232 180.400,182.053 180.400 C 181.873 180.400,181.319 181.191,180.821 182.158 C 180.182 183.402,179.405 184.180,178.167 184.817 C 177.204 185.312,176.308 186.061,176.174 186.482 C 175.474 188.689,164.305 188.652,163.726 186.440 C 163.618 186.027,162.745 185.286,161.786 184.793 C 160.701 184.235,159.810 183.407,159.428 182.603 C 159.091 181.892,158.530 181.074,158.181 180.784 C 156.021 178.991,156.311 176.997,158.820 176.407 C 160.676 175.970,178.540 175.946,180.776 176.378 M244.776 176.378 C 247.107 176.828,247.775 177.702,246.973 179.253 C 246.646 179.884,246.232 180.400,246.053 180.400 C 245.873 180.400,245.319 181.191,244.821 182.158 C 244.182 183.402,243.405 184.180,242.167 184.817 C 241.204 185.312,240.308 186.061,240.174 186.482 C 239.474 188.689,228.305 188.652,227.726 186.440 C 227.618 186.027,226.745 185.286,225.786 184.793 C 224.701 184.235,223.810 183.407,223.428 182.603 C 223.091 181.892,222.530 181.074,222.181 180.784 C 220.021 178.991,220.311 176.997,222.820 176.407 C 224.676 175.970,242.540 175.946,244.776 176.378 M308.776 176.378 C 311.107 176.828,311.775 177.702,310.973 179.253 C 310.646 179.884,310.232 180.400,310.053 180.400 C 309.873 180.400,309.319 181.191,308.821 182.158 C 308.182 183.402,307.405 184.180,306.167 184.817 C 305.204 185.312,304.308 186.061,304.174 186.482 C 303.474 188.689,292.305 188.652,291.726 186.440 C 291.618 186.027,290.745 185.286,289.786 184.793 C 288.701 184.235,287.810 183.407,287.428 182.603 C 287.091 181.892,286.530 181.074,286.181 180.784 C 284.021 178.991,284.311 176.997,286.820 176.407 C 288.676 175.970,306.540 175.946,308.776 176.378 M132.831 188.760 C 130.623 189.060,130.354 189.738,132.074 190.674 C 135.054 192.295,145.701 191.316,145.094 189.477 C 144.800 188.589,137.318 188.152,132.831 188.760 M196.631 188.757 C 194.299 189.118,194.405 189.869,196.948 190.994 C 200.746 192.673,200.400 186.146,200.400 256.211 L 200.400 318.062 199.231 319.231 L 198.062 320.400 147.045 320.400 C 96.635 320.400,96.023 320.409,95.605 321.191 C 94.350 323.536,87.824 323.400,202.000 323.400 C 315.706 323.400,308.755 323.539,308.319 321.277 C 308.198 320.646,304.664 320.586,256.860 320.400 L 205.531 320.200 204.565 319.078 L 203.600 317.955 203.600 256.158 C 203.600 186.153,203.255 192.673,207.052 190.994 C 209.658 189.841,209.695 189.116,207.167 188.730 C 205.036 188.404,198.806 188.420,196.631 188.757 M260.831 188.760 C 258.623 189.060,258.354 189.738,260.074 190.674 C 263.054 192.295,273.701 191.316,273.094 189.477 C 272.800 188.589,265.318 188.152,260.831 188.760 M85.280 197.280 C 83.854 198.706,85.125 204.024,86.600 202.800 C 87.751 201.845,87.246 196.800,86.000 196.800 C 85.868 196.800,85.544 197.016,85.280 197.280 M85.149 213.461 C 84.202 214.602,84.362 233.737,85.326 234.686 C 87.177 236.507,87.600 234.526,87.600 224.045 C 87.600 213.390,87.078 211.137,85.149 213.461 M181.076 241.042 C 180.280 241.473,179.987 241.907,180.076 242.526 C 180.269 243.886,187.731 243.883,187.925 242.523 C 188.185 240.693,183.563 239.693,181.076 241.042 M217.076 241.042 C 216.280 241.473,215.987 241.907,216.076 242.526 C 216.269 243.886,223.731 243.883,223.925 242.523 C 224.185 240.693,219.563 239.693,217.076 241.042 M177.023 245.155 C 175.700 247.714,176.691 252.186,178.523 251.925 C 179.355 251.806,179.400 251.606,179.400 248.000 C 179.400 243.677,178.404 242.485,177.023 245.155 M188.570 244.533 C 187.922 246.222,188.607 251.801,189.477 251.925 C 191.299 252.184,192.301 247.717,190.990 245.180 C 190.351 243.945,188.941 243.568,188.570 244.533 M213.023 245.155 C 211.700 247.714,212.691 252.186,214.523 251.925 C 215.885 251.731,215.885 244.269,214.523 244.075 C 213.886 243.985,213.476 244.280,213.023 245.155 M224.570 244.533 C 223.922 246.222,224.607 251.801,225.477 251.925 C 227.299 252.184,228.301 247.717,226.990 245.180 C 226.351 243.945,224.941 243.568,224.570 244.533 M85.114 245.700 C 84.214 247.276,84.379 309.311,85.288 311.320 C 85.896 312.664,86.071 312.790,86.788 312.406 C 87.904 311.809,88.087 247.274,86.977 245.689 C 86.190 244.566,85.761 244.568,85.114 245.700 M180.281 252.653 C 179.642 253.292,180.076 254.419,181.180 254.990 C 183.717 256.301,188.184 255.299,187.925 253.477 C 187.798 252.587,181.072 251.862,180.281 252.653 M216.281 252.653 C 215.642 253.292,216.076 254.419,217.180 254.990 C 219.717 256.301,224.184 255.299,223.925 253.477 C 223.798 252.587,217.072 251.862,216.281 252.653 M88.692 313.237 C 88.299 313.466,88.110 313.854,88.268 314.110 C 88.425 314.364,88.755 315.467,89.001 316.561 C 89.444 318.525,89.475 318.556,91.439 318.999 C 92.533 319.245,93.638 319.576,93.894 319.735 C 94.502 320.110,95.420 318.460,94.895 317.935 C 94.686 317.726,93.905 317.251,93.158 316.878 C 92.358 316.479,91.466 315.554,90.988 314.629 C 90.077 312.866,89.712 312.645,88.692 313.237 M313.731 313.300 C 313.557 313.575,313.141 314.340,312.807 315.000 C 312.473 315.660,311.493 316.565,310.629 317.012 C 309.766 317.458,308.984 318.049,308.892 318.325 C 308.662 319.013,309.588 320.054,310.131 319.719 C 310.373 319.569,311.467 319.245,312.561 318.999 C 314.542 318.553,314.553 318.541,315.021 316.463 C 315.279 315.315,315.604 314.263,315.742 314.125 C 316.087 313.780,315.223 312.800,314.575 312.800 C 314.285 312.800,313.905 313.025,313.731 313.300 " stroke="none" fill="#21272f" fill-rule="evenodd"></path><path id="path1" d="M90.600 68.370 C 84.922 69.341,78.086 74.930,74.550 81.489 L 72.227 85.800 72.069 94.055 C 71.916 102.031,71.940 102.340,72.755 103.155 L 73.600 104.000 202.000 104.000 L 330.400 104.000 331.240 103.160 C 332.707 101.693,332.257 87.073,330.652 83.999 C 330.020 82.789,328.994 80.785,328.371 79.545 C 326.584 75.990,323.443 73.164,318.318 70.504 L 313.880 68.200 203.040 68.148 C 142.078 68.119,91.480 68.219,90.600 68.370 M312.739 69.171 C 313.695 69.356,314.998 69.892,315.635 70.363 C 316.272 70.834,318.070 71.732,319.630 72.359 C 321.744 73.208,322.665 73.823,323.242 74.773 C 323.668 75.473,324.508 76.332,325.108 76.681 C 325.870 77.124,326.925 78.779,328.600 82.158 L 331.000 87.000 331.138 94.514 C 331.238 100.002,331.144 102.185,330.789 102.614 C 330.051 103.502,73.949 103.503,73.212 102.614 C 72.403 101.640,72.809 86.948,73.688 85.400 C 75.167 82.794,77.200 78.597,77.200 78.151 C 77.200 77.891,77.834 77.305,78.608 76.848 C 79.383 76.391,80.391 75.383,80.848 74.608 C 81.305 73.834,81.924 73.200,82.223 73.200 C 82.522 73.200,84.350 72.368,86.284 71.352 C 88.218 70.336,90.430 69.366,91.200 69.198 C 93.120 68.778,310.568 68.751,312.739 69.171 M97.435 76.068 C 96.372 76.685,92.575 80.526,92.040 81.525 C 91.798 81.977,91.600 83.991,91.600 86.000 C 91.600 88.009,91.798 90.023,92.040 90.475 C 92.610 91.541,96.459 95.390,97.525 95.960 C 98.593 96.531,105.407 96.531,106.475 95.960 C 107.541 95.390,111.390 91.541,111.960 90.475 C 112.531 89.407,112.531 82.593,111.960 81.525 C 111.390 80.459,107.541 76.610,106.475 76.040 C 105.409 75.469,98.430 75.491,97.435 76.068 M125.707 76.010 C 122.086 77.466,119.600 81.670,119.600 86.337 C 119.600 90.188,119.612 90.215,122.715 93.490 C 126.354 97.329,134.516 97.721,136.428 94.148 C 136.727 93.589,137.470 92.874,138.079 92.559 C 141.379 90.853,141.376 81.458,138.075 79.508 C 137.463 79.146,136.720 78.397,136.423 77.843 C 135.358 75.853,128.861 74.742,125.707 76.010 M153.379 76.221 C 152.708 76.552,151.865 77.321,151.505 77.930 C 151.145 78.539,150.397 79.280,149.843 79.577 C 147.184 81.000,146.642 92.000,149.231 92.000 C 149.418 92.000,150.476 92.945,151.584 94.100 L 153.598 96.200 158.018 96.200 L 162.439 96.200 164.175 94.400 C 165.129 93.410,166.375 92.182,166.943 91.670 C 169.470 89.393,168.842 81.142,166.014 79.472 C 165.436 79.130,164.720 78.397,164.423 77.843 C 163.269 75.686,156.483 74.689,153.379 76.221 M106.572 77.177 C 106.919 77.465,107.347 78.254,107.522 78.930 C 107.760 79.850,108.150 80.240,109.070 80.478 C 112.391 81.339,112.679 89.700,109.447 91.400 C 108.541 91.877,107.716 92.703,107.405 93.446 C 106.765 94.977,105.133 95.618,102.040 95.553 C 98.339 95.474,97.478 95.159,96.711 93.600 C 96.317 92.799,95.385 91.858,94.533 91.400 C 91.450 89.743,91.661 80.400,94.782 80.400 C 95.144 80.400,95.656 80.184,95.920 79.920 C 96.184 79.656,96.400 79.144,96.400 78.782 C 96.400 76.686,104.450 75.416,106.572 77.177 M133.770 76.935 C 134.531 77.260,135.100 77.909,135.397 78.791 C 135.737 79.801,136.203 80.264,137.227 80.605 C 140.496 81.698,140.496 90.302,137.227 91.395 C 136.197 91.739,135.739 92.197,135.395 93.227 C 134.300 96.502,125.698 96.495,124.602 93.218 C 124.257 92.184,123.833 91.756,122.921 91.519 C 119.260 90.571,119.567 80.400,123.257 80.400 C 123.679 80.400,124.119 80.085,124.234 79.700 C 124.736 78.024,125.481 77.014,126.406 76.756 C 128.062 76.296,132.525 76.404,133.770 76.935 M162.753 77.357 C 163.179 77.743,163.637 78.493,163.770 79.023 C 163.914 79.597,164.403 80.086,164.977 80.230 C 168.429 81.096,168.736 89.670,165.378 91.425 C 164.438 91.916,163.751 92.586,163.678 93.083 C 163.168 96.557,153.105 96.463,152.230 92.977 C 152.086 92.403,151.597 91.914,151.023 91.770 C 147.447 90.872,147.447 81.128,151.023 80.230 C 151.597 80.086,152.086 79.597,152.230 79.023 C 152.759 76.915,154.089 76.406,158.689 76.551 C 161.156 76.629,162.171 76.831,162.753 77.357 M99.733 80.439 C 95.915 81.544,94.786 87.213,97.787 90.213 C 103.095 95.522,111.556 87.562,106.483 82.032 C 104.722 80.112,102.595 79.610,99.733 80.439 M126.825 80.731 C 123.059 82.751,123.063 89.215,126.831 91.293 C 132.240 94.278,138.278 88.240,135.293 82.831 C 133.832 80.182,129.740 79.167,126.825 80.731 M131.558 82.931 C 132.010 83.664,132.835 84.470,133.390 84.723 C 133.990 84.996,134.400 85.514,134.400 86.000 C 134.400 86.486,133.990 87.004,133.390 87.277 C 132.835 87.530,132.010 88.336,131.558 89.069 C 130.547 90.704,129.465 90.771,128.568 89.254 C 128.196 88.624,127.376 87.804,126.746 87.432 C 126.116 87.059,125.600 86.415,125.600 86.000 C 125.600 85.585,126.116 84.941,126.746 84.568 C 127.376 84.196,128.196 83.376,128.568 82.746 C 129.465 81.229,130.547 81.296,131.558 82.931 M162.034 88.953 L 161.069 90.200 162.213 89.112 C 162.843 88.514,163.277 87.953,163.179 87.865 C 163.080 87.777,162.565 88.267,162.034 88.953 M72.892 111.868 C 72.031 112.214,71.200 114.273,71.192 116.080 C 71.180 118.435,70.299 122.100,69.017 125.128 C 68.123 127.237,67.857 128.759,67.406 134.328 C 66.799 141.826,66.661 142.584,65.395 145.408 C 64.252 147.959,63.693 150.807,63.395 155.600 C 63.045 161.242,62.429 164.640,61.317 167.068 C 59.096 171.920,59.728 172.171,74.551 172.322 C 86.442 172.444,86.506 172.440,87.451 171.552 L 88.400 170.661 88.400 142.000 L 88.400 113.339 87.474 112.470 C 86.577 111.627,74.708 111.137,72.892 111.868 M124.470 112.526 L 123.600 113.452 123.600 142.056 L 123.600 170.661 124.526 171.530 C 125.436 172.385,125.665 172.400,138.056 172.400 L 150.661 172.400 151.530 171.474 L 152.400 170.548 152.400 141.944 L 152.400 113.339 151.474 112.470 C 150.564 111.615,150.335 111.600,137.944 111.600 L 125.339 111.600 124.470 112.526 M188.470 112.526 L 187.600 113.452 187.600 142.056 L 187.600 170.661 188.526 171.530 C 189.436 172.385,189.665 172.400,202.056 172.400 L 214.661 172.400 215.530 171.474 L 216.400 170.548 216.400 141.944 L 216.400 113.339 215.474 112.470 C 214.564 111.615,214.335 111.600,201.944 111.600 L 189.339 111.600 188.470 112.526 M252.470 112.526 L 251.600 113.452 251.600 142.056 L 251.600 170.661 252.526 171.530 C 253.436 172.385,253.665 172.400,266.056 172.400 L 278.661 172.400 279.530 171.474 L 280.400 170.548 280.400 141.944 L 280.400 113.339 279.474 112.470 C 278.564 111.615,278.335 111.600,265.944 111.600 L 253.339 111.600 252.470 112.526 M316.470 112.526 L 315.600 113.452 315.600 142.056 L 315.600 170.661 316.526 171.530 C 317.430 172.380,317.707 172.400,328.476 172.400 C 344.196 172.400,345.073 172.044,342.613 166.665 C 341.522 164.280,341.023 161.412,340.440 154.163 C 340.189 151.036,339.744 148.490,339.182 146.963 C 338.705 145.663,338.058 143.908,337.746 143.063 C 337.434 142.218,336.925 138.405,336.616 134.589 C 336.143 128.760,335.882 127.249,334.983 125.126 C 333.701 122.100,332.820 118.435,332.808 116.080 C 332.788 111.921,332.145 111.600,323.837 111.600 C 317.562 111.600,317.310 111.632,316.470 112.526 M87.200 112.800 C 87.985 113.585,88.000 114.133,88.000 142.000 C 88.000 169.867,87.985 170.415,87.200 171.200 C 86.438 171.962,85.889 171.999,75.700 171.969 C 61.454 171.928,60.173 171.534,61.924 167.727 C 63.048 165.283,63.510 162.742,63.816 157.318 C 64.119 151.930,64.607 149.325,65.807 146.675 C 66.975 144.094,67.463 141.317,67.974 134.324 C 68.320 129.596,68.563 128.365,69.749 125.324 C 70.504 123.386,71.236 120.720,71.376 119.400 C 72.200 111.579,71.709 112.000,80.000 112.000 C 85.867 112.000,86.467 112.067,87.200 112.800 M92.870 112.926 L 92.000 113.852 92.000 142.056 L 92.000 170.261 92.926 171.130 C 93.835 171.984,94.076 172.000,106.056 172.000 L 118.261 172.000 119.130 171.074 L 120.000 170.148 120.000 141.944 L 120.000 113.739 119.074 112.870 C 118.165 112.016,117.924 112.000,105.944 112.000 L 93.739 112.000 92.870 112.926 M151.200 112.800 C 151.985 113.585,152.000 114.133,152.000 142.000 C 152.000 169.867,151.985 170.415,151.200 171.200 C 150.434 171.966,149.867 172.000,138.000 172.000 C 126.133 172.000,125.566 171.966,124.800 171.200 C 124.015 170.415,124.000 169.867,124.000 142.000 C 124.000 114.133,124.015 113.585,124.800 112.800 C 125.566 112.034,126.133 112.000,138.000 112.000 C 149.867 112.000,150.434 112.034,151.200 112.800 M156.870 112.926 L 156.000 113.852 156.000 142.056 L 156.000 170.261 156.926 171.130 C 157.835 171.984,158.076 172.000,170.056 172.000 L 182.261 172.000 183.130 171.074 L 184.000 170.148 184.000 141.944 L 184.000 113.739 183.074 112.870 C 182.165 112.016,181.924 112.000,169.944 112.000 L 157.739 112.000 156.870 112.926 M215.200 112.800 C 215.985 113.585,216.000 114.133,216.000 142.000 C 216.000 169.867,215.985 170.415,215.200 171.200 C 214.434 171.966,213.867 172.000,202.000 172.000 C 190.133 172.000,189.566 171.966,188.800 171.200 C 188.015 170.415,188.000 169.867,188.000 142.000 C 188.000 114.133,188.015 113.585,188.800 112.800 C 189.566 112.034,190.133 112.000,202.000 112.000 C 213.867 112.000,214.434 112.034,215.200 112.800 M220.870 112.926 L 220.000 113.852 220.000 142.056 L 220.000 170.261 220.926 171.130 C 221.835 171.984,222.076 172.000,234.056 172.000 L 246.261 172.000 247.130 171.074 L 248.000 170.148 248.000 141.944 L 248.000 113.739 247.074 112.870 C 246.165 112.016,245.924 112.000,233.944 112.000 L 221.739 112.000 220.870 112.926 M279.200 112.800 C 279.985 113.585,280.000 114.133,280.000 142.000 C 280.000 169.867,279.985 170.415,279.200 171.200 C 278.434 171.966,277.867 172.000,266.000 172.000 C 254.133 172.000,253.566 171.966,252.800 171.200 C 252.015 170.415,252.000 169.867,252.000 142.000 C 252.000 114.133,252.015 113.585,252.800 112.800 C 253.566 112.034,254.133 112.000,266.000 112.000 C 277.867 112.000,278.434 112.034,279.200 112.800 M284.870 112.926 L 284.000 113.852 284.000 142.056 L 284.000 170.261 284.926 171.130 C 285.835 171.984,286.076 172.000,298.056 172.000 L 310.261 172.000 311.130 171.074 L 312.000 170.148 312.000 141.944 L 312.000 113.739 311.074 112.870 C 310.165 112.016,309.924 112.000,297.944 112.000 L 285.739 112.000 284.870 112.926 M331.167 112.767 C 331.663 113.263,332.023 114.360,332.185 115.867 C 332.711 120.762,333.231 123.096,334.435 125.959 C 335.532 128.565,335.725 129.612,336.059 134.759 C 336.473 141.132,337.154 144.758,338.394 147.188 C 339.300 148.963,339.807 152.018,340.360 159.026 C 340.605 162.136,341.048 164.696,341.605 166.226 C 343.624 171.769,343.638 171.763,328.923 171.923 C 317.991 172.042,317.620 172.020,316.823 171.223 C 315.546 169.946,315.524 114.076,316.800 112.800 C 317.996 111.604,329.977 111.577,331.167 112.767 M62.674 176.007 C 60.066 176.790,59.811 177.831,61.700 179.985 C 62.415 180.801,63.301 182.027,63.668 182.711 C 64.077 183.472,65.125 184.354,66.368 184.984 C 67.486 185.550,68.400 186.186,68.400 186.396 C 68.400 187.271,71.126 188.100,75.154 188.450 C 80.448 188.909,81.464 189.572,78.696 190.759 C 75.280 192.223,75.574 186.026,75.694 254.039 L 75.800 314.600 76.720 316.400 C 79.185 321.224,80.767 323.722,81.778 324.385 C 82.388 324.786,83.214 325.612,83.615 326.222 C 84.278 327.233,86.776 328.815,91.600 331.280 L 93.400 332.200 202.000 332.200 L 310.600 332.200 312.400 331.283 C 320.292 327.264,323.264 324.292,327.283 316.400 L 328.200 314.600 328.308 254.041 C 328.428 186.125,328.711 192.219,325.374 190.789 C 322.241 189.446,322.920 189.015,329.062 188.445 C 333.312 188.051,334.200 187.754,336.241 186.041 C 336.923 185.469,338.037 184.700,338.716 184.333 C 339.411 183.957,340.330 182.909,340.819 181.933 C 341.297 180.980,342.149 179.708,342.712 179.107 C 343.960 177.775,343.304 176.689,340.840 176.004 C 337.760 175.149,318.238 175.497,317.054 176.429 C 315.567 177.599,315.657 179.152,317.300 180.684 C 318.015 181.351,318.910 182.465,319.288 183.160 C 319.667 183.855,320.521 184.733,321.186 185.112 C 322.455 185.834,322.640 186.357,322.032 187.505 C 321.830 187.887,321.245 189.010,320.732 190.000 L 319.800 191.800 319.600 250.800 C 319.382 315.088,319.471 312.742,317.277 312.319 C 316.646 312.198,316.587 308.017,316.400 250.195 L 316.200 188.200 316.000 249.529 L 315.800 310.858 314.537 311.929 C 313.842 312.518,312.974 313.601,312.609 314.335 C 312.243 315.069,311.377 315.969,310.685 316.335 C 309.993 316.701,308.915 317.525,308.290 318.167 C 306.550 319.954,306.839 319.944,254.600 320.074 L 205.800 320.195 256.995 320.398 C 304.671 320.586,308.198 320.647,308.319 321.277 C 308.755 323.539,315.706 323.400,202.000 323.400 C 87.824 323.400,94.350 323.536,95.605 321.191 C 96.023 320.410,96.684 320.399,147.114 320.307 L 198.200 320.213 148.000 320.007 C 97.853 319.800,96.730 319.765,95.976 318.354 C 95.754 317.941,94.844 317.231,93.954 316.776 C 93.056 316.318,92.037 315.386,91.667 314.685 C 91.300 313.988,90.370 312.821,89.600 312.090 L 88.200 310.760 88.000 278.391 L 87.800 246.022 86.900 245.122 L 86.000 244.222 85.100 245.122 L 84.200 246.022 84.200 277.711 C 84.200 312.205,84.171 311.702,86.323 314.080 C 87.135 314.978,88.074 316.448,88.408 317.348 C 88.904 318.679,89.321 319.096,90.652 319.592 C 91.552 319.926,93.022 320.865,93.920 321.677 C 96.369 323.894,91.567 323.800,202.000 323.800 C 312.433 323.800,307.631 323.894,310.080 321.677 C 310.978 320.865,312.448 319.926,313.348 319.592 C 314.693 319.091,315.094 318.685,315.605 317.300 C 315.947 316.374,316.797 315.028,317.493 314.308 C 320.110 311.605,320.000 314.380,320.000 250.942 C 320.000 211.231,320.131 193.307,320.428 192.527 C 321.027 190.952,322.027 189.929,322.561 190.345 C 322.802 190.534,323.871 191.013,324.935 191.412 C 328.316 192.677,328.033 186.754,327.910 253.654 L 327.800 313.417 325.503 317.938 C 322.395 324.055,320.054 326.395,313.937 329.503 L 309.416 331.800 202.000 331.800 L 94.584 331.800 90.063 329.503 C 83.946 326.395,81.605 324.055,78.497 317.938 L 76.200 313.417 76.090 253.654 C 75.967 186.754,75.684 192.673,79.065 191.417 C 80.129 191.021,81.630 190.104,82.400 189.379 C 83.170 188.654,84.429 187.900,85.198 187.705 C 86.148 187.464,86.925 186.865,87.627 185.830 C 89.397 183.225,89.878 183.189,91.971 185.510 C 92.977 186.626,94.430 187.843,95.200 188.215 C 95.970 188.587,97.053 189.314,97.606 189.830 C 100.831 192.841,111.169 192.841,114.394 189.830 C 114.947 189.314,116.030 188.587,116.800 188.215 C 117.570 187.843,119.023 186.626,120.029 185.510 C 122.120 183.191,122.599 183.225,124.370 185.818 C 125.043 186.803,125.951 187.515,126.991 187.873 C 127.866 188.175,129.048 188.932,129.618 189.556 C 132.548 192.763,143.475 192.738,146.417 189.517 C 147.006 188.872,148.188 188.108,149.044 187.818 C 150.045 187.480,150.968 186.760,151.630 185.801 C 153.408 183.226,153.883 183.195,155.971 185.510 C 156.977 186.626,158.430 187.843,159.200 188.215 C 159.970 188.587,161.053 189.314,161.606 189.830 C 163.250 191.365,165.706 192.000,170.000 192.000 C 174.294 192.000,176.750 191.365,178.394 189.830 C 178.947 189.314,180.030 188.587,180.800 188.215 C 181.570 187.843,183.023 186.626,184.029 185.510 C 186.121 183.190,186.601 183.225,188.370 185.823 C 189.083 186.870,189.928 187.512,191.116 187.907 C 192.060 188.221,193.111 188.903,193.452 189.423 C 193.803 189.959,195.055 190.733,196.336 191.208 C 197.581 191.669,198.927 192.441,199.327 192.923 L 200.054 193.800 199.605 192.885 C 199.350 192.367,198.198 191.547,196.943 190.992 C 193.185 189.330,194.924 188.459,202.000 188.459 C 209.076 188.459,210.815 189.330,207.057 190.992 C 205.802 191.547,204.650 192.367,204.395 192.885 L 203.946 193.800 204.673 192.926 C 205.073 192.446,206.380 191.685,207.578 191.235 C 208.776 190.786,210.126 189.957,210.578 189.393 C 211.030 188.830,212.120 188.127,213.000 187.831 C 214.048 187.478,214.955 186.778,215.630 185.801 C 217.408 183.226,217.883 183.195,219.971 185.510 C 220.977 186.626,222.430 187.843,223.200 188.215 C 223.970 188.587,225.053 189.314,225.606 189.830 C 228.831 192.841,239.169 192.841,242.394 189.830 C 242.947 189.314,244.030 188.587,244.800 188.215 C 245.570 187.843,247.023 186.626,248.029 185.510 C 250.120 183.191,250.599 183.225,252.370 185.818 C 253.043 186.803,253.951 187.515,254.991 187.873 C 255.866 188.175,257.048 188.932,257.618 189.556 C 260.548 192.763,271.475 192.738,274.417 189.517 C 275.006 188.872,276.188 188.108,277.044 187.818 C 278.045 187.480,278.968 186.760,279.630 185.801 C 281.408 183.226,281.883 183.195,283.971 185.510 C 284.977 186.626,286.430 187.843,287.200 188.215 C 287.970 188.587,289.053 189.314,289.606 189.830 C 292.831 192.841,303.169 192.841,306.394 189.830 C 306.947 189.314,308.030 188.587,308.800 188.215 C 309.570 187.843,311.025 186.623,312.034 185.505 C 314.031 183.289,314.518 183.267,315.424 185.348 C 315.864 186.360,315.972 186.436,315.984 185.744 C 316.038 182.833,312.840 182.496,311.482 185.271 C 310.918 186.423,310.364 186.873,308.893 187.375 C 307.863 187.725,306.386 188.616,305.610 189.353 C 302.216 192.580,292.489 192.481,290.060 189.195 C 289.496 188.432,288.529 187.830,287.296 187.475 C 285.738 187.025,285.273 186.664,284.691 185.451 C 283.342 182.643,280.432 182.460,279.332 185.114 C 278.556 186.987,278.738 186.840,276.718 187.220 C 275.773 187.398,274.708 187.656,274.351 187.795 C 272.637 188.459,273.244 186.018,274.984 185.248 C 276.178 184.720,276.817 184.119,277.210 183.154 C 277.514 182.409,278.266 181.323,278.881 180.740 C 280.365 179.333,280.391 177.566,278.946 176.429 C 277.933 175.632,277.426 175.600,265.915 175.600 L 253.938 175.600 252.811 176.728 C 251.445 178.094,251.562 179.554,253.147 180.908 C 253.726 181.402,254.505 182.465,254.877 183.269 C 255.355 184.301,255.973 184.883,256.977 185.246 C 258.163 185.675,258.400 185.954,258.400 186.923 C 258.400 187.867,258.268 188.035,257.700 187.814 C 257.315 187.665,256.227 187.398,255.282 187.220 C 253.262 186.840,253.444 186.987,252.668 185.114 C 251.588 182.508,248.523 182.650,247.391 185.359 C 246.941 186.437,246.433 186.850,244.923 187.365 C 243.877 187.721,242.386 188.616,241.610 189.353 C 238.216 192.580,228.489 192.481,226.060 189.195 C 225.496 188.432,224.529 187.830,223.296 187.475 C 221.738 187.025,221.273 186.664,220.691 185.451 C 219.342 182.643,216.432 182.460,215.332 185.114 C 214.556 186.987,214.738 186.840,212.718 187.220 C 211.773 187.398,210.708 187.656,210.351 187.795 C 208.637 188.459,209.244 186.018,210.984 185.248 C 212.178 184.720,212.817 184.119,213.210 183.154 C 213.514 182.409,214.266 181.323,214.881 180.740 C 216.365 179.333,216.391 177.566,214.946 176.429 C 213.933 175.632,213.426 175.600,201.915 175.600 L 189.938 175.600 188.777 176.762 C 187.453 178.085,187.669 179.747,189.340 181.102 C 189.813 181.486,190.505 182.460,190.877 183.266 C 191.356 184.302,191.971 184.883,192.977 185.246 C 194.163 185.675,194.400 185.954,194.400 186.923 C 194.400 187.867,194.268 188.035,193.700 187.814 C 193.315 187.665,192.227 187.398,191.282 187.220 C 189.262 186.840,189.444 186.987,188.668 185.114 C 187.588 182.508,184.523 182.650,183.391 185.359 C 182.941 186.437,182.433 186.850,180.923 187.365 C 179.877 187.721,178.386 188.616,177.610 189.353 C 174.216 192.580,164.489 192.481,162.060 189.195 C 161.496 188.432,160.529 187.830,159.296 187.475 C 157.738 187.025,157.273 186.664,156.691 185.451 C 155.342 182.643,152.432 182.460,151.332 185.114 C 150.556 186.987,150.738 186.840,148.718 187.220 C 147.773 187.398,146.708 187.656,146.351 187.795 C 144.637 188.459,145.244 186.018,146.984 185.248 C 148.178 184.720,148.817 184.119,149.210 183.154 C 149.514 182.409,150.266 181.323,150.881 180.740 C 152.365 179.333,152.391 177.566,150.946 176.429 C 149.933 175.632,149.426 175.600,137.915 175.600 L 125.938 175.600 124.777 176.762 C 123.453 178.085,123.669 179.747,125.340 181.102 C 125.813 181.486,126.505 182.460,126.877 183.266 C 127.356 184.302,127.971 184.883,128.977 185.246 C 130.163 185.675,130.400 185.954,130.400 186.923 C 130.400 187.867,130.268 188.035,129.700 187.814 C 129.315 187.665,128.227 187.398,127.282 187.220 C 125.262 186.840,125.444 186.987,124.668 185.114 C 123.588 182.508,120.523 182.650,119.391 185.359 C 118.941 186.437,118.433 186.850,116.923 187.365 C 115.877 187.721,114.386 188.616,113.610 189.353 C 110.216 192.580,100.489 192.481,98.060 189.195 C 97.496 188.432,96.529 187.830,95.296 187.475 C 93.738 187.025,93.273 186.664,92.691 185.451 C 91.342 182.643,88.434 182.460,87.329 185.114 C 86.537 187.015,86.238 187.186,83.700 187.194 C 81.074 187.202,80.696 186.088,83.037 185.241 C 84.062 184.871,84.665 184.302,85.138 183.261 C 85.504 182.457,86.297 181.313,86.901 180.718 C 88.356 179.285,88.375 177.553,86.946 176.429 C 85.815 175.540,65.413 175.184,62.674 176.007 M86.846 177.067 C 87.704 177.926,87.705 177.946,86.956 179.104 C 86.540 179.747,85.674 181.092,85.030 182.092 C 84.387 183.092,83.307 184.222,82.630 184.604 C 81.954 184.985,80.926 185.851,80.347 186.527 C 78.582 188.587,70.981 188.346,69.177 186.173 C 68.887 185.823,67.770 185.091,66.693 184.546 C 65.526 183.954,64.467 183.056,64.068 182.318 C 63.701 181.638,62.872 180.462,62.226 179.703 C 59.597 176.618,61.858 176.007,75.490 176.116 C 85.660 176.197,86.005 176.226,86.846 177.067 M94.820 176.407 C 92.311 176.997,92.021 178.991,94.181 180.784 C 94.530 181.074,95.091 181.892,95.428 182.603 C 95.810 183.407,96.701 184.235,97.786 184.793 C 98.745 185.286,99.618 186.027,99.726 186.440 C 100.305 188.652,111.474 188.689,112.174 186.482 C 112.308 186.061,113.204 185.312,114.167 184.817 C 115.405 184.180,116.182 183.402,116.821 182.158 C 117.319 181.191,117.873 180.400,118.053 180.400 C 118.818 180.400,119.583 178.130,119.059 177.413 C 118.116 176.124,99.334 175.344,94.820 176.407 M150.846 177.067 C 151.704 177.926,151.705 177.946,150.956 179.104 C 150.540 179.747,149.669 181.099,149.020 182.108 C 148.372 183.117,147.168 184.320,146.345 184.783 C 145.523 185.245,144.493 186.113,144.058 186.712 C 142.613 188.696,131.600 188.409,131.600 186.386 C 131.600 186.170,130.709 185.444,129.620 184.774 C 128.531 184.104,127.525 183.194,127.385 182.752 C 127.244 182.309,126.630 181.374,126.019 180.674 C 123.968 178.322,124.242 176.778,126.800 176.277 C 130.384 175.575,149.999 176.220,150.846 177.067 M158.820 176.407 C 156.311 176.997,156.021 178.991,158.181 180.784 C 158.530 181.074,159.091 181.892,159.428 182.603 C 159.810 183.407,160.701 184.235,161.786 184.793 C 162.745 185.286,163.618 186.027,163.726 186.440 C 164.305 188.652,175.474 188.689,176.174 186.482 C 176.308 186.061,177.204 185.312,178.167 184.817 C 179.405 184.180,180.182 183.402,180.821 182.158 C 181.319 181.191,181.873 180.400,182.053 180.400 C 182.818 180.400,183.583 178.130,183.059 177.413 C 182.116 176.124,163.334 175.344,158.820 176.407 M214.846 177.067 C 215.704 177.926,215.705 177.946,214.956 179.104 C 214.540 179.747,213.669 181.099,213.020 182.108 C 212.372 183.117,211.168 184.320,210.345 184.783 C 209.523 185.245,208.493 186.113,208.058 186.712 C 206.613 188.696,195.600 188.409,195.600 186.386 C 195.600 186.170,194.709 185.444,193.620 184.774 C 192.531 184.104,191.525 183.194,191.385 182.752 C 191.244 182.309,190.630 181.374,190.019 180.674 C 187.968 178.322,188.242 176.778,190.800 176.277 C 194.384 175.575,213.999 176.220,214.846 177.067 M222.820 176.407 C 220.311 176.997,220.021 178.991,222.181 180.784 C 222.530 181.074,223.091 181.892,223.428 182.603 C 223.810 183.407,224.701 184.235,225.786 184.793 C 226.745 185.286,227.618 186.027,227.726 186.440 C 228.305 188.652,239.474 188.689,240.174 186.482 C 240.308 186.061,241.204 185.312,242.167 184.817 C 243.405 184.180,244.182 183.402,244.821 182.158 C 245.319 181.191,245.873 180.400,246.053 180.400 C 246.818 180.400,247.583 178.130,247.059 177.413 C 246.116 176.124,227.334 175.344,222.820 176.407 M278.846 177.067 C 279.704 177.926,279.705 177.946,278.956 179.104 C 278.540 179.747,277.669 181.099,277.020 182.108 C 276.372 183.117,275.168 184.320,274.345 184.783 C 273.523 185.245,272.493 186.113,272.058 186.712 C 270.613 188.696,259.600 188.409,259.600 186.386 C 259.600 186.170,258.709 185.444,257.620 184.774 C 256.531 184.104,255.525 183.194,255.385 182.752 C 255.244 182.309,254.630 181.374,254.019 180.674 C 251.968 178.322,252.242 176.778,254.800 176.277 C 258.384 175.575,277.999 176.220,278.846 177.067 M286.820 176.407 C 284.311 176.997,284.021 178.991,286.181 180.784 C 286.530 181.074,287.091 181.892,287.428 182.603 C 287.810 183.407,288.701 184.235,289.786 184.793 C 290.745 185.286,291.618 186.027,291.726 186.440 C 292.305 188.652,303.474 188.689,304.174 186.482 C 304.308 186.061,305.204 185.312,306.167 184.817 C 307.405 184.180,308.182 183.402,308.821 182.158 C 309.319 181.191,309.873 180.400,310.053 180.400 C 310.818 180.400,311.583 178.130,311.059 177.413 C 310.116 176.124,291.334 175.344,286.820 176.407 M340.018 176.399 C 342.550 177.102,343.144 177.756,342.199 178.801 C 341.765 179.281,340.957 180.512,340.404 181.536 C 339.685 182.866,338.860 183.689,337.513 184.416 C 336.477 184.976,335.217 185.813,334.714 186.275 C 332.008 188.767,325.812 188.554,323.056 185.875 C 321.995 184.844,321.002 184.000,320.850 184.000 C 320.697 184.000,320.234 183.415,319.821 182.700 C 319.407 181.985,318.468 180.724,317.734 179.899 C 315.955 177.897,316.294 176.747,318.800 176.291 C 320.808 175.925,338.641 176.016,340.018 176.399 M142.968 188.735 C 145.365 189.058,145.689 189.715,143.926 190.674 C 140.946 192.295,130.301 191.316,130.906 189.477 C 131.191 188.606,138.620 188.150,142.968 188.735 M270.968 188.735 C 273.365 189.058,273.689 189.715,271.926 190.674 C 268.946 192.295,258.301 191.316,258.906 189.477 C 259.191 188.606,266.620 188.150,270.968 188.735 M200.195 256.000 C 200.195 290.210,200.242 304.205,200.300 287.100 C 200.358 269.995,200.358 242.005,200.300 224.900 C 200.242 207.795,200.195 221.790,200.195 256.000 M203.795 256.000 C 203.795 290.210,203.842 304.205,203.900 287.100 C 203.958 269.995,203.958 242.005,203.900 224.900 C 203.842 207.795,203.795 221.790,203.795 256.000 M85.062 197.131 C 84.104 198.191,84.150 202.050,85.131 202.938 C 86.621 204.286,87.600 203.120,87.600 200.000 C 87.600 196.845,86.474 195.572,85.062 197.131 M86.720 197.280 C 88.146 198.706,86.875 204.024,85.400 202.800 C 84.249 201.845,84.754 196.800,86.000 196.800 C 86.132 196.800,86.456 197.016,86.720 197.280 M84.962 213.242 C 82.742 215.695,84.146 236.286,86.473 235.394 C 87.985 234.813,88.896 216.450,87.540 213.874 C 86.674 212.228,86.024 212.069,84.962 213.242 M86.977 213.689 C 88.023 215.182,87.892 233.156,86.826 234.456 C 84.952 236.741,84.600 235.095,84.600 224.047 C 84.600 212.924,85.054 210.944,86.977 213.689 M181.600 240.266 C 181.270 240.401,179.920 241.583,178.600 242.892 L 176.200 245.272 176.200 248.000 L 176.200 250.728 178.683 253.211 C 181.307 255.835,183.135 256.505,185.829 255.828 C 187.224 255.478,191.478 251.224,191.828 249.829 C 193.145 244.585,186.417 238.295,181.600 240.266 M217.600 240.266 C 217.270 240.401,215.920 241.583,214.600 242.892 L 212.200 245.272 212.200 248.000 L 212.200 250.728 214.683 253.211 C 217.307 255.835,219.135 256.505,221.829 255.828 C 223.224 255.478,227.478 251.224,227.828 249.829 C 229.145 244.585,222.417 238.295,217.600 240.266 M186.845 241.023 C 187.720 241.476,188.015 241.886,187.925 242.523 C 187.731 243.883,180.269 243.886,180.076 242.526 C 179.815 240.694,184.288 239.701,186.845 241.023 M222.845 241.023 C 223.720 241.476,224.015 241.886,223.925 242.523 C 223.731 243.883,216.269 243.886,216.076 242.526 C 215.815 240.694,220.288 239.701,222.845 241.023 M179.400 248.000 C 179.400 252.323,178.404 253.515,177.023 250.845 C 175.700 248.286,176.691 243.814,178.523 244.075 C 179.355 244.194,179.400 244.394,179.400 248.000 M190.990 245.180 C 192.301 247.717,191.299 252.184,189.477 251.925 C 188.607 251.801,187.922 246.222,188.570 244.533 C 188.941 243.568,190.351 243.945,190.990 245.180 M215.400 248.000 C 215.400 252.323,214.404 253.515,213.023 250.845 C 211.700 248.286,212.691 243.814,214.523 244.075 C 215.355 244.194,215.400 244.394,215.400 248.000 M226.990 245.180 C 228.301 247.717,227.299 252.184,225.477 251.925 C 224.607 251.801,223.922 246.222,224.570 244.533 C 224.941 243.568,226.351 243.945,226.990 245.180 M187.120 244.880 C 187.851 245.611,187.739 250.203,186.971 250.971 C 186.203 251.739,181.611 251.851,180.880 251.120 C 180.248 250.488,180.248 245.512,180.880 244.880 C 181.156 244.604,182.480 244.400,184.000 244.400 C 185.520 244.400,186.844 244.604,187.120 244.880 M223.120 244.880 C 223.851 245.611,223.739 250.203,222.971 250.971 C 222.203 251.739,217.611 251.851,216.880 251.120 C 216.604 250.844,216.400 249.520,216.400 248.000 C 216.400 246.480,216.604 245.156,216.880 244.880 C 217.156 244.604,218.480 244.400,220.000 244.400 C 221.520 244.400,222.844 244.604,223.120 244.880 M86.977 245.689 C 88.087 247.274,87.904 311.809,86.788 312.406 C 84.647 313.552,84.600 312.822,84.600 278.200 C 84.600 243.576,84.685 242.416,86.977 245.689 M187.925 253.477 C 188.184 255.299,183.717 256.301,181.180 254.990 C 180.076 254.419,179.642 253.292,180.281 252.653 C 181.072 251.862,187.798 252.587,187.925 253.477 M223.925 253.477 C 224.184 255.299,219.717 256.301,217.180 254.990 C 216.076 254.419,215.642 253.292,216.281 252.653 C 217.072 251.862,223.798 252.587,223.925 253.477 M90.988 314.629 C 91.466 315.554,92.358 316.479,93.158 316.878 C 93.905 317.251,94.686 317.726,94.895 317.935 C 95.420 318.460,94.502 320.110,93.894 319.735 C 93.638 319.576,92.533 319.245,91.439 318.999 C 89.475 318.556,89.444 318.525,89.001 316.561 C 88.755 315.467,88.425 314.364,88.268 314.110 C 87.969 313.625,89.119 312.742,89.788 312.942 C 90.002 313.007,90.542 313.766,90.988 314.629 M315.548 313.337 C 315.793 313.632,315.880 313.987,315.742 314.125 C 315.604 314.263,315.279 315.315,315.021 316.463 C 314.553 318.541,314.542 318.553,312.561 318.999 C 311.467 319.245,310.373 319.569,310.131 319.719 C 309.588 320.054,308.662 319.013,308.892 318.325 C 308.984 318.049,309.766 317.458,310.629 317.012 C 311.493 316.565,312.473 315.660,312.807 315.000 C 314.025 312.592,314.627 312.227,315.548 313.337 " stroke="none" fill="#ec7c9b" fill-rule="evenodd"></path><path id="path2" d="M76.900 113.497 C 78.605 113.572,81.395 113.572,83.100 113.497 C 84.805 113.422,83.410 113.361,80.000 113.361 C 76.590 113.361,75.195 113.422,76.900 113.497 M131.900 113.499 C 135.255 113.566,140.745 113.566,144.100 113.499 C 147.455 113.432,144.710 113.378,138.000 113.378 C 131.290 113.378,128.545 113.432,131.900 113.499 M195.900 113.499 C 199.255 113.566,204.745 113.566,208.100 113.499 C 211.455 113.432,208.710 113.378,202.000 113.378 C 195.290 113.378,192.545 113.432,195.900 113.499 M259.900 113.499 C 263.255 113.566,268.745 113.566,272.100 113.499 C 275.455 113.432,272.710 113.378,266.000 113.378 C 259.290 113.378,256.545 113.432,259.900 113.499 M320.900 113.497 C 322.605 113.572,325.395 113.572,327.100 113.497 C 328.805 113.422,327.410 113.361,324.000 113.361 C 320.590 113.361,319.195 113.422,320.900 113.497 M73.324 116.200 C 73.326 117.520,73.401 118.012,73.490 117.293 C 73.579 116.574,73.577 115.494,73.486 114.893 C 73.395 114.292,73.322 114.880,73.324 116.200 M86.589 142.000 C 86.589 157.510,86.639 163.855,86.700 156.100 C 86.761 148.345,86.761 135.655,86.700 127.900 C 86.639 120.145,86.589 126.490,86.589 142.000 M125.389 142.000 C 125.389 157.510,125.439 163.855,125.500 156.100 C 125.561 148.345,125.561 135.655,125.500 127.900 C 125.439 120.145,125.389 126.490,125.389 142.000 M150.589 142.000 C 150.589 157.510,150.639 163.855,150.700 156.100 C 150.761 148.345,150.761 135.655,150.700 127.900 C 150.639 120.145,150.589 126.490,150.589 142.000 M189.389 142.000 C 189.389 157.510,189.439 163.855,189.500 156.100 C 189.561 148.345,189.561 135.655,189.500 127.900 C 189.439 120.145,189.389 126.490,189.389 142.000 M214.589 142.000 C 214.589 157.510,214.639 163.855,214.700 156.100 C 214.761 148.345,214.761 135.655,214.700 127.900 C 214.639 120.145,214.589 126.490,214.589 142.000 M253.389 142.000 C 253.389 157.510,253.439 163.855,253.500 156.100 C 253.561 148.345,253.561 135.655,253.500 127.900 C 253.439 120.145,253.389 126.490,253.389 142.000 M278.589 142.000 C 278.589 157.510,278.639 163.855,278.700 156.100 C 278.761 148.345,278.761 135.655,278.700 127.900 C 278.639 120.145,278.589 126.490,278.589 142.000 M317.389 142.000 C 317.389 157.510,317.439 163.855,317.500 156.100 C 317.561 148.345,317.561 135.655,317.500 127.900 C 317.439 120.145,317.389 126.490,317.389 142.000 M330.524 116.200 C 330.526 117.520,330.601 118.012,330.690 117.293 C 330.779 116.574,330.777 115.494,330.686 114.893 C 330.595 114.292,330.522 114.880,330.524 116.200 M72.872 122.236 C 72.775 124.989,71.900 127.728,70.641 129.224 C 70.069 129.905,69.614 130.853,69.632 131.331 C 69.653 131.924,69.735 132.010,69.890 131.600 C 70.015 131.270,70.616 130.426,71.225 129.724 C 72.515 128.239,73.318 124.975,73.095 122.126 L 72.944 120.200 72.872 122.236 M330.862 123.000 C 330.783 125.739,331.459 127.971,332.798 129.400 C 333.417 130.060,334.010 130.960,334.116 131.400 C 334.263 132.016,334.318 131.953,334.354 131.125 C 334.383 130.445,333.963 129.571,333.212 128.748 C 332.093 127.524,331.444 125.550,331.058 122.200 C 330.980 121.522,330.895 121.869,330.862 123.000 M69.346 136.600 C 69.347 138.800,69.414 139.649,69.495 138.487 C 69.576 137.324,69.576 135.524,69.493 134.487 C 69.411 133.449,69.345 134.400,69.346 136.600 M334.546 136.600 C 334.547 138.800,334.614 139.649,334.695 138.487 C 334.776 137.324,334.776 135.524,334.693 134.487 C 334.611 133.449,334.545 134.400,334.546 136.600 M68.800 143.936 C 68.800 146.134,67.851 148.986,66.641 150.424 C 65.337 151.973,65.193 153.133,66.432 152.096 C 68.190 150.627,70.417 142.400,69.058 142.400 C 68.916 142.400,68.800 143.091,68.800 143.936 M334.993 145.253 C 335.140 148.497,335.834 150.364,337.457 151.881 C 338.814 153.149,338.656 152.032,337.223 150.229 C 336.152 148.881,335.531 146.953,335.026 143.400 C 334.932 142.740,334.917 143.574,334.993 145.253 M65.351 157.600 C 65.351 160.130,65.416 161.165,65.496 159.900 C 65.575 158.635,65.575 156.565,65.496 155.300 C 65.416 154.035,65.351 155.070,65.351 157.600 M338.551 157.600 C 338.551 160.130,338.616 161.165,338.696 159.900 C 338.775 158.635,338.775 156.565,338.696 155.300 C 338.616 154.035,338.551 155.070,338.551 157.600 M64.656 166.100 C 64.514 167.475,64.353 168.941,64.299 169.357 C 64.244 169.773,64.380 170.177,64.600 170.255 C 64.840 170.339,65.052 169.037,65.130 166.998 C 65.283 163.013,65.027 162.528,64.656 166.100 M338.933 166.898 C 338.974 169.030,339.156 170.340,339.400 170.254 C 339.620 170.176,339.744 169.682,339.676 169.156 C 338.936 163.464,338.863 163.242,338.933 166.898 M70.476 170.699 C 73.268 170.767,77.948 170.768,80.876 170.699 C 83.804 170.631,81.520 170.575,75.800 170.574 C 70.080 170.574,67.684 170.630,70.476 170.699 M131.900 170.699 C 135.255 170.766,140.745 170.766,144.100 170.699 C 147.455 170.632,144.710 170.578,138.000 170.578 C 131.290 170.578,128.545 170.632,131.900 170.699 M195.900 170.699 C 199.255 170.766,204.745 170.766,208.100 170.699 C 211.455 170.632,208.710 170.578,202.000 170.578 C 195.290 170.578,192.545 170.632,195.900 170.699 M259.900 170.699 C 263.255 170.766,268.745 170.766,272.100 170.699 C 275.455 170.632,272.710 170.578,266.000 170.578 C 259.290 170.578,256.545 170.632,259.900 170.699 M322.876 170.699 C 325.668 170.767,330.348 170.768,333.276 170.699 C 336.204 170.631,333.920 170.575,328.200 170.574 C 322.480 170.574,320.084 170.630,322.876 170.699 M69.678 177.498 C 72.031 177.569,75.991 177.569,78.478 177.499 C 80.965 177.429,79.040 177.371,74.200 177.370 C 69.360 177.370,67.325 177.428,69.678 177.498 M133.500 177.499 C 135.975 177.569,140.025 177.569,142.500 177.499 C 144.975 177.428,142.950 177.371,138.000 177.371 C 133.050 177.371,131.025 177.428,133.500 177.499 M197.500 177.499 C 199.975 177.569,204.025 177.569,206.500 177.499 C 208.975 177.428,206.950 177.371,202.000 177.371 C 197.050 177.371,195.025 177.428,197.500 177.499 M261.500 177.499 C 263.975 177.569,268.025 177.569,270.500 177.499 C 272.975 177.428,270.950 177.371,266.000 177.371 C 261.050 177.371,259.025 177.428,261.500 177.499 M325.278 177.498 C 327.631 177.569,331.591 177.569,334.078 177.499 C 336.565 177.429,334.640 177.371,329.800 177.370 C 324.960 177.370,322.925 177.428,325.278 177.498 M64.296 177.900 C 64.213 178.065,64.372 178.830,64.649 179.600 L 65.153 181.000 65.076 179.302 C 65.006 177.747,64.674 177.149,64.296 177.900 M83.704 178.100 C 83.673 178.619,82.892 180.980,82.427 181.962 C 82.281 182.270,81.413 182.744,80.498 183.014 C 79.583 183.284,78.152 184.041,77.317 184.695 C 76.483 185.349,75.530 186.002,75.200 186.146 C 74.870 186.290,75.208 186.316,75.952 186.204 C 76.724 186.087,77.969 185.399,78.853 184.600 C 79.705 183.830,80.734 183.200,81.139 183.200 C 82.018 183.200,83.200 181.995,83.200 181.099 C 83.200 180.748,83.645 179.933,84.189 179.286 C 85.150 178.144,85.154 177.600,84.200 177.600 C 83.943 177.600,83.720 177.825,83.704 178.100 M127.033 177.947 C 126.915 178.137,127.158 178.600,127.573 178.976 C 127.988 179.352,128.448 180.141,128.595 180.729 C 128.942 182.120,129.933 183.200,130.861 183.200 C 131.266 183.200,132.295 183.830,133.147 184.600 C 134.031 185.399,135.276 186.087,136.048 186.204 C 136.792 186.316,137.130 186.288,136.800 186.141 C 136.470 185.994,135.415 185.277,134.455 184.547 C 133.496 183.817,132.107 183.106,131.369 182.968 C 130.632 182.830,129.874 182.510,129.684 182.258 C 129.276 181.715,128.223 178.331,128.327 177.900 C 128.429 177.482,127.295 177.523,127.033 177.947 M147.704 178.100 C 147.672 178.634,146.881 181.011,146.408 181.991 C 146.252 182.317,145.552 182.700,144.854 182.843 C 144.156 182.985,142.862 183.619,141.980 184.251 C 141.098 184.883,139.977 185.639,139.488 185.932 C 138.656 186.431,138.686 186.450,139.952 186.232 C 140.696 186.104,142.001 185.369,142.853 184.600 C 143.705 183.830,144.734 183.200,145.139 183.200 C 146.018 183.200,147.200 181.995,147.200 181.099 C 147.200 180.748,147.645 179.933,148.189 179.286 C 149.150 178.144,149.154 177.600,148.200 177.600 C 147.943 177.600,147.720 177.825,147.704 178.100 M191.033 177.947 C 190.915 178.137,191.158 178.600,191.573 178.976 C 191.988 179.352,192.448 180.141,192.595 180.729 C 192.942 182.120,193.933 183.200,194.861 183.200 C 195.266 183.200,196.295 183.830,197.147 184.600 C 198.031 185.399,199.276 186.087,200.048 186.204 C 200.792 186.316,201.130 186.288,200.800 186.141 C 200.470 185.994,199.415 185.277,198.455 184.547 C 197.496 183.817,196.107 183.106,195.369 182.968 C 194.632 182.830,193.874 182.510,193.684 182.258 C 193.276 181.715,192.223 178.331,192.327 177.900 C 192.429 177.482,191.295 177.523,191.033 177.947 M211.704 178.100 C 211.672 178.634,210.881 181.011,210.408 181.991 C 210.252 182.317,209.552 182.700,208.854 182.843 C 208.156 182.985,206.862 183.619,205.980 184.251 C 205.098 184.883,203.977 185.639,203.488 185.932 C 202.656 186.431,202.686 186.450,203.952 186.232 C 204.696 186.104,206.001 185.369,206.853 184.600 C 207.705 183.830,208.734 183.200,209.139 183.200 C 210.018 183.200,211.200 181.995,211.200 181.099 C 211.200 180.748,211.645 179.933,212.189 179.286 C 213.150 178.144,213.154 177.600,212.200 177.600 C 211.943 177.600,211.720 177.825,211.704 178.100 M255.033 177.947 C 254.915 178.137,255.158 178.600,255.573 178.976 C 255.988 179.352,256.448 180.141,256.595 180.729 C 256.942 182.120,257.933 183.200,258.861 183.200 C 259.266 183.200,260.295 183.830,261.147 184.600 C 262.031 185.399,263.276 186.087,264.048 186.204 C 264.792 186.316,265.130 186.288,264.800 186.141 C 264.470 185.994,263.415 185.277,262.455 184.547 C 261.496 183.817,260.107 183.106,259.369 182.968 C 258.632 182.830,257.874 182.510,257.684 182.258 C 257.276 181.715,256.223 178.331,256.327 177.900 C 256.429 177.482,255.295 177.523,255.033 177.947 M275.704 178.100 C 275.672 178.634,274.881 181.011,274.408 181.991 C 274.252 182.317,273.552 182.700,272.854 182.843 C 272.156 182.985,270.862 183.619,269.980 184.251 C 269.098 184.883,267.977 185.639,267.488 185.932 C 266.656 186.431,266.686 186.450,267.952 186.232 C 268.696 186.104,270.001 185.369,270.853 184.600 C 271.705 183.830,272.734 183.200,273.139 183.200 C 274.018 183.200,275.200 181.995,275.200 181.099 C 275.200 180.748,275.645 179.933,276.189 179.286 C 277.150 178.144,277.154 177.600,276.200 177.600 C 275.943 177.600,275.720 177.825,275.704 178.100 M319.100 177.833 C 318.972 177.962,319.207 178.407,319.623 178.823 C 320.039 179.239,320.498 180.079,320.644 180.690 C 320.986 182.129,321.932 183.200,322.861 183.200 C 323.266 183.200,324.295 183.830,325.147 184.600 C 326.031 185.399,327.276 186.087,328.048 186.204 C 328.792 186.316,329.130 186.290,328.800 186.146 C 328.470 186.002,327.517 185.349,326.683 184.695 C 325.848 184.041,324.417 183.284,323.502 183.014 C 322.587 182.744,321.719 182.270,321.573 181.962 C 321.108 180.980,320.327 178.619,320.296 178.100 C 320.266 177.586,319.515 177.418,319.100 177.833 M338.936 179.101 C 338.882 180.380,338.920 180.453,339.196 179.600 C 339.629 178.264,339.664 177.600,339.300 177.601 C 339.135 177.601,338.971 178.276,338.936 179.101 M65.328 181.795 C 65.375 182.262,65.738 182.625,66.205 182.672 C 66.781 182.732,66.814 182.699,66.325 182.552 C 65.953 182.442,65.558 182.047,65.448 181.675 C 65.301 181.186,65.268 181.219,65.328 181.795 M338.400 181.704 C 338.400 182.055,338.085 182.424,337.700 182.524 C 337.044 182.696,337.045 182.710,337.713 182.754 C 338.436 182.801,339.106 181.773,338.649 181.316 C 338.512 181.179,338.400 181.353,338.400 181.704 M68.003 183.174 C 69.619 183.665,71.345 184.655,72.163 185.559 C 73.292 186.807,73.781 186.578,72.832 185.245 C 71.967 184.030,69.398 182.776,67.892 182.834 C 67.052 182.867,67.058 182.887,68.003 183.174 M333.521 183.510 C 332.708 183.890,331.660 184.695,331.192 185.300 C 330.210 186.570,330.860 186.816,331.904 185.568 C 332.651 184.676,334.376 183.667,335.997 183.174 L 337.000 182.869 336.000 182.845 C 335.450 182.832,334.335 183.131,333.521 183.510 M89.258 187.206 C 88.956 188.072,88.349 188.622,87.106 189.154 C 86.046 189.609,85.187 190.311,84.888 190.968 C 84.619 191.557,83.815 192.293,83.100 192.604 C 82.385 192.914,82.070 193.178,82.400 193.190 C 83.759 193.240,84.149 193.852,83.453 194.845 C 82.550 196.134,82.634 196.566,83.600 195.600 C 86.354 192.846,89.200 195.082,89.200 200.000 C 89.200 204.296,88.644 205.200,86.000 205.200 C 84.933 205.200,84.133 204.933,83.600 204.400 C 83.160 203.960,82.800 203.756,82.800 203.946 C 82.800 204.136,83.160 204.750,83.600 205.309 C 84.111 205.958,84.400 206.932,84.400 208.000 C 84.400 209.068,84.111 210.042,83.600 210.691 C 83.160 211.250,82.800 211.864,82.800 212.054 C 82.800 212.244,83.160 212.040,83.600 211.600 C 85.437 209.763,88.604 210.784,89.212 213.411 C 89.691 215.477,89.691 232.523,89.212 234.589 C 88.604 237.216,85.437 238.237,83.600 236.400 C 83.160 235.960,82.800 235.756,82.800 235.946 C 82.800 236.136,83.160 236.750,83.600 237.309 C 84.111 237.958,84.400 238.932,84.400 240.000 C 84.400 241.068,84.111 242.042,83.600 242.691 C 83.160 243.250,82.800 243.864,82.800 244.054 C 82.800 244.244,83.160 244.040,83.600 243.600 C 84.972 242.228,88.249 242.642,89.053 244.289 C 89.244 244.680,89.490 259.147,89.600 276.437 L 89.800 307.874 91.277 309.677 C 92.090 310.668,92.879 312.001,93.032 312.639 C 93.422 314.265,93.836 314.680,95.349 314.964 C 96.076 315.100,97.455 315.884,98.415 316.706 L 100.161 318.200 149.282 318.305 L 198.403 318.409 198.301 255.905 L 198.200 193.400 195.726 193.163 C 193.028 192.905,191.409 192.090,190.994 190.781 C 190.839 190.291,189.976 189.619,188.929 189.169 C 187.650 188.621,186.999 188.051,186.677 187.199 C 186.209 185.958,185.600 185.589,185.600 186.546 C 185.600 187.530,184.049 189.090,182.829 189.334 C 182.030 189.494,181.421 189.985,180.991 190.818 C 179.860 193.005,178.349 193.354,170.000 193.354 C 161.651 193.354,160.140 193.005,159.009 190.818 C 158.579 189.985,157.970 189.494,157.171 189.334 C 155.951 189.090,154.400 187.530,154.400 186.546 C 154.400 185.562,153.687 185.974,153.258 187.206 C 152.952 188.083,152.346 188.623,151.041 189.182 C 149.893 189.674,149.020 190.389,148.620 191.161 C 146.885 194.517,128.655 194.354,127.113 190.969 C 126.812 190.308,125.953 189.609,124.877 189.147 C 123.648 188.620,122.996 188.043,122.677 187.199 C 122.209 185.958,121.600 185.589,121.600 186.546 C 121.600 187.530,120.049 189.090,118.829 189.334 C 118.030 189.494,117.421 189.985,116.991 190.818 C 115.860 193.005,114.349 193.354,106.000 193.354 C 97.651 193.354,96.140 193.005,95.009 190.818 C 94.579 189.985,93.970 189.494,93.171 189.334 C 91.951 189.090,90.400 187.530,90.400 186.546 C 90.400 185.562,89.687 185.974,89.258 187.206 M217.258 187.206 C 216.952 188.083,216.346 188.623,215.041 189.182 C 213.902 189.671,213.019 190.389,212.627 191.148 C 211.934 192.487,211.180 192.816,208.000 193.161 L 205.800 193.400 205.699 255.905 L 205.597 318.409 254.718 318.305 L 303.839 318.200 305.585 316.706 C 306.545 315.884,307.924 315.100,308.651 314.964 C 310.201 314.673,310.613 314.245,310.975 312.547 C 311.123 311.858,311.908 310.517,312.721 309.567 L 314.200 307.839 314.304 246.920 C 314.373 206.123,314.274 186.000,314.004 186.000 C 313.782 186.000,313.600 186.246,313.600 186.546 C 313.600 187.530,312.049 189.090,310.829 189.334 C 310.030 189.494,309.421 189.985,308.991 190.818 C 307.860 193.005,306.349 193.354,298.000 193.354 C 289.651 193.354,288.140 193.005,287.009 190.818 C 286.579 189.985,285.970 189.494,285.171 189.334 C 283.951 189.090,282.400 187.530,282.400 186.546 C 282.400 185.562,281.687 185.974,281.258 187.206 C 280.952 188.083,280.346 188.623,279.041 189.182 C 277.893 189.674,277.020 190.389,276.620 191.161 C 274.885 194.517,256.655 194.354,255.113 190.969 C 254.812 190.308,253.953 189.609,252.877 189.147 C 251.648 188.620,250.996 188.043,250.677 187.199 C 250.209 185.958,249.600 185.589,249.600 186.546 C 249.600 187.530,248.049 189.090,246.829 189.334 C 246.030 189.494,245.421 189.985,244.991 190.818 C 243.860 193.005,242.349 193.354,234.000 193.354 C 225.651 193.354,224.140 193.005,223.009 190.818 C 222.579 189.985,221.970 189.494,221.171 189.334 C 219.951 189.090,218.400 187.530,218.400 186.546 C 218.400 185.562,217.687 185.974,217.258 187.206 M189.458 239.454 C 195.048 242.107,194.956 253.893,189.323 256.626 C 187.168 257.671,180.832 257.671,178.677 256.626 C 173.645 254.184,172.835 243.655,177.411 240.164 C 179.787 238.352,186.323 237.967,189.458 239.454 M225.458 239.454 C 231.048 242.107,230.956 253.893,225.323 256.626 C 223.168 257.671,216.832 257.671,214.677 256.626 C 209.645 254.184,208.835 243.655,213.411 240.164 C 215.787 238.352,222.323 237.967,225.458 239.454 " stroke="none" fill="#c4dbf3" fill-rule="evenodd"></path><path id="path3" d="M73.596 114.900 C 73.568 123.027,72.734 127.991,71.082 129.873 L 69.831 131.298 69.540 137.549 C 69.039 148.317,68.631 150.260,66.496 152.041 C 65.733 152.678,65.548 154.817,65.050 168.800 L 65.000 170.200 75.700 170.307 L 86.400 170.413 86.400 142.007 L 86.400 113.600 80.000 113.600 L 73.600 113.600 73.596 114.900 M125.600 142.000 L 125.600 170.400 138.000 170.400 L 150.400 170.400 150.400 142.000 L 150.400 113.600 138.000 113.600 L 125.600 113.600 125.600 142.000 M189.600 142.000 L 189.600 170.400 202.000 170.400 L 214.400 170.400 214.400 142.000 L 214.400 113.600 202.000 113.600 L 189.600 113.600 189.600 142.000 M253.600 142.000 L 253.600 170.400 266.000 170.400 L 278.400 170.400 278.400 142.000 L 278.400 113.600 266.000 113.600 L 253.600 113.600 253.600 142.000 M317.600 142.007 L 317.600 170.413 328.300 170.307 L 339.000 170.200 338.950 168.800 C 338.432 154.257,338.285 152.655,337.393 151.821 C 335.243 149.811,334.982 148.527,334.441 137.285 L 334.127 130.769 332.890 129.485 C 331.179 127.707,330.457 123.468,330.408 114.900 L 330.400 113.600 324.000 113.600 L 317.600 113.600 317.600 142.007 M65.025 177.959 C 64.244 179.223,65.671 182.377,67.130 182.613 C 69.839 183.052,71.976 184.042,72.844 185.262 C 73.878 186.714,74.945 186.586,77.294 184.726 C 78.141 184.055,79.583 183.284,80.498 183.014 C 81.413 182.744,82.281 182.270,82.427 181.962 C 82.731 181.321,83.596 178.800,83.718 178.200 C 83.825 177.676,65.348 177.438,65.025 177.959 M128.329 177.804 C 128.123 178.010,129.175 181.415,129.705 182.255 C 129.862 182.505,130.603 182.824,131.351 182.964 C 132.099 183.105,133.583 183.886,134.650 184.701 C 137.260 186.693,138.746 186.689,141.376 184.681 C 142.457 183.855,143.805 183.084,144.371 182.966 C 146.046 182.618,146.569 182.190,146.822 180.962 C 146.953 180.323,147.266 179.419,147.516 178.953 C 147.767 178.487,147.858 177.992,147.719 177.853 C 147.420 177.554,128.627 177.506,128.329 177.804 M192.329 177.804 C 192.123 178.010,193.175 181.415,193.705 182.255 C 193.862 182.505,194.603 182.824,195.351 182.964 C 196.099 183.105,197.583 183.886,198.650 184.701 C 201.260 186.693,202.746 186.689,205.376 184.681 C 206.457 183.855,207.805 183.084,208.371 182.966 C 210.046 182.618,210.569 182.190,210.822 180.962 C 210.953 180.323,211.266 179.419,211.516 178.953 C 211.767 178.487,211.858 177.992,211.719 177.853 C 211.420 177.554,192.627 177.506,192.329 177.804 M256.329 177.804 C 256.123 178.010,257.175 181.415,257.705 182.255 C 257.862 182.505,258.603 182.824,259.351 182.964 C 260.099 183.105,261.583 183.886,262.650 184.701 C 265.260 186.693,266.746 186.689,269.376 184.681 C 270.457 183.855,271.805 183.084,272.371 182.966 C 274.046 182.618,274.569 182.190,274.822 180.962 C 274.953 180.323,275.266 179.419,275.516 178.953 C 275.767 178.487,275.858 177.992,275.719 177.853 C 275.420 177.554,256.627 177.506,256.329 177.804 M320.290 177.844 C 320.148 177.985,320.295 178.610,320.616 179.231 C 320.937 179.852,321.200 180.707,321.200 181.131 C 321.200 182.103,321.853 182.633,323.478 182.981 C 324.180 183.131,325.553 183.863,326.527 184.607 C 329.149 186.608,330.125 186.740,331.234 185.240 C 332.154 183.995,334.190 183.047,336.885 182.610 C 338.433 182.359,338.603 182.038,338.906 178.800 L 339.000 177.800 329.774 177.693 C 324.699 177.634,320.432 177.702,320.290 177.844 M78.295 193.477 C 77.238 193.752,77.402 311.059,78.461 312.118 C 79.731 313.388,80.723 315.418,81.189 317.704 C 81.533 319.392,81.979 320.300,82.860 321.104 C 84.381 322.492,85.507 323.618,86.907 325.151 C 87.737 326.060,88.606 326.479,90.390 326.830 C 91.906 327.128,93.532 327.823,94.883 328.749 L 97.000 330.200 202.000 330.200 L 307.000 330.200 308.892 328.877 C 309.933 328.149,311.961 327.227,313.398 326.829 C 317.254 325.760,321.760 321.254,322.829 317.398 C 323.227 315.961,324.149 313.933,324.877 312.892 L 326.200 311.000 326.304 252.319 L 326.408 193.638 325.056 193.384 C 324.313 193.245,323.276 193.191,322.752 193.265 L 321.800 193.400 321.600 253.600 C 321.378 320.382,321.588 315.558,318.840 316.979 C 318.172 317.325,317.578 318.037,317.416 318.686 C 317.039 320.194,316.150 321.104,314.752 321.411 C 314.023 321.571,313.361 322.101,312.986 322.827 C 311.531 325.641,321.932 325.400,202.000 325.400 C 84.609 325.400,92.665 325.572,91.166 323.033 C 90.651 322.159,89.936 321.562,89.218 321.404 C 87.857 321.105,86.959 320.186,86.592 318.716 C 86.433 318.078,85.759 317.301,84.955 316.826 C 82.502 315.379,82.600 316.960,82.600 278.934 L 82.600 244.067 83.500 242.850 C 84.087 242.055,84.400 241.065,84.400 240.000 C 84.400 238.934,84.087 237.945,83.500 237.150 C 82.614 235.952,82.600 235.748,82.600 224.000 C 82.600 212.252,82.614 212.048,83.500 210.850 C 84.087 210.055,84.400 209.066,84.400 208.000 C 84.400 206.934,84.087 205.945,83.500 205.150 C 82.268 203.485,82.165 196.829,83.342 195.032 C 84.405 193.409,81.722 192.583,78.295 193.477 " stroke="none" fill="#fbfbf2" fill-rule="evenodd"></path><path id="path4" d="M91.200 69.198 C 90.430 69.366,88.218 70.336,86.284 71.352 C 84.350 72.368,82.522 73.200,82.223 73.200 C 81.924 73.200,81.305 73.834,80.848 74.608 C 80.391 75.383,79.383 76.391,78.608 76.848 C 77.834 77.305,77.200 77.891,77.200 78.151 C 77.200 78.597,75.167 82.794,73.688 85.400 C 72.809 86.948,72.403 101.640,73.212 102.614 C 73.949 103.503,330.051 103.502,330.789 102.614 C 331.144 102.185,331.238 100.002,331.138 94.514 L 331.000 87.000 328.600 82.158 C 326.925 78.779,325.870 77.124,325.108 76.681 C 324.508 76.332,323.668 75.473,323.242 74.773 C 322.665 73.823,321.744 73.208,319.630 72.359 C 318.070 71.732,316.272 70.834,315.635 70.363 C 314.998 69.892,313.695 69.356,312.739 69.171 C 310.568 68.751,93.120 68.778,91.200 69.198 M106.475 76.040 C 106.928 76.282,108.248 77.430,109.409 78.591 C 112.255 81.438,112.400 81.796,112.400 86.000 C 112.400 90.204,112.255 90.562,109.409 93.409 C 106.562 96.255,106.204 96.400,102.000 96.400 C 97.796 96.400,97.438 96.255,94.591 93.409 C 91.745 90.562,91.600 90.204,91.600 86.000 C 91.600 83.991,91.798 81.977,92.040 81.525 C 92.575 80.526,96.372 76.685,97.435 76.068 C 98.430 75.491,105.409 75.469,106.475 76.040 M134.582 76.218 C 135.298 76.558,136.127 77.289,136.423 77.843 C 136.720 78.397,137.463 79.146,138.075 79.508 C 141.376 81.458,141.379 90.853,138.079 92.559 C 137.470 92.874,136.727 93.589,136.428 94.148 C 134.516 97.721,126.354 97.329,122.715 93.490 C 119.612 90.215,119.600 90.188,119.600 86.337 C 119.600 81.985,119.854 81.329,122.596 78.587 C 125.678 75.504,130.902 74.472,134.582 76.218 M162.582 76.218 C 163.298 76.558,164.127 77.289,164.423 77.843 C 164.720 78.397,165.436 79.130,166.014 79.472 C 168.842 81.142,169.470 89.393,166.943 91.670 C 166.375 92.182,165.129 93.410,164.175 94.400 L 162.439 96.200 158.018 96.200 L 153.598 96.200 151.584 94.100 C 150.476 92.945,149.418 92.000,149.231 92.000 C 146.642 92.000,147.184 81.000,149.843 79.577 C 150.397 79.280,151.145 78.539,151.505 77.930 C 152.846 75.661,159.303 74.662,162.582 76.218 M156.072 81.073 C 151.551 83.301,151.620 88.800,156.196 90.971 C 158.689 92.154,161.638 90.596,163.027 87.363 C 164.631 83.628,159.783 79.244,156.072 81.073 M128.568 82.746 C 128.196 83.376,127.376 84.196,126.746 84.568 C 126.116 84.941,125.600 85.585,125.600 86.000 C 125.600 86.415,126.116 87.059,126.746 87.432 C 127.376 87.804,128.196 88.624,128.568 89.254 C 129.465 90.771,130.547 90.704,131.558 89.069 C 132.010 88.336,132.835 87.530,133.390 87.277 C 133.990 87.004,134.400 86.486,134.400 86.000 C 134.400 85.514,133.990 84.996,133.390 84.723 C 132.835 84.470,132.010 83.664,131.558 82.931 C 130.547 81.296,129.465 81.229,128.568 82.746 M72.829 112.771 C 72.082 113.518,71.915 114.282,71.376 119.400 C 71.236 120.720,70.504 123.386,69.749 125.324 C 68.563 128.365,68.320 129.596,67.974 134.324 C 67.463 141.317,66.975 144.094,65.807 146.675 C 64.607 149.325,64.119 151.930,63.816 157.318 C 63.510 162.742,63.048 165.283,61.924 167.727 C 60.173 171.534,61.454 171.928,75.700 171.969 C 85.889 171.999,86.438 171.962,87.200 171.200 C 87.985 170.415,88.000 169.867,88.000 142.000 C 88.000 114.133,87.985 113.585,87.200 112.800 C 86.001 111.601,74.023 111.577,72.829 112.771 M124.800 112.800 C 124.015 113.585,124.000 114.133,124.000 142.000 C 124.000 169.867,124.015 170.415,124.800 171.200 C 125.566 171.966,126.133 172.000,138.000 172.000 C 149.867 172.000,150.434 171.966,151.200 171.200 C 151.985 170.415,152.000 169.867,152.000 142.000 C 152.000 114.133,151.985 113.585,151.200 112.800 C 150.434 112.034,149.867 112.000,138.000 112.000 C 126.133 112.000,125.566 112.034,124.800 112.800 M188.800 112.800 C 188.015 113.585,188.000 114.133,188.000 142.000 C 188.000 169.867,188.015 170.415,188.800 171.200 C 189.566 171.966,190.133 172.000,202.000 172.000 C 213.867 172.000,214.434 171.966,215.200 171.200 C 215.985 170.415,216.000 169.867,216.000 142.000 C 216.000 114.133,215.985 113.585,215.200 112.800 C 214.434 112.034,213.867 112.000,202.000 112.000 C 190.133 112.000,189.566 112.034,188.800 112.800 M252.800 112.800 C 252.015 113.585,252.000 114.133,252.000 142.000 C 252.000 169.867,252.015 170.415,252.800 171.200 C 253.566 171.966,254.133 172.000,266.000 172.000 C 277.867 172.000,278.434 171.966,279.200 171.200 C 279.985 170.415,280.000 169.867,280.000 142.000 C 280.000 114.133,279.985 113.585,279.200 112.800 C 278.434 112.034,277.867 112.000,266.000 112.000 C 254.133 112.000,253.566 112.034,252.800 112.800 M316.800 112.800 C 315.524 114.076,315.546 169.946,316.823 171.223 C 317.620 172.020,317.991 172.042,328.923 171.923 C 343.638 171.763,343.624 171.769,341.605 166.226 C 341.048 164.696,340.605 162.136,340.360 159.026 C 339.807 152.018,339.300 148.963,338.394 147.188 C 337.154 144.758,336.473 141.132,336.059 134.759 C 335.725 129.612,335.532 128.565,334.435 125.959 C 333.231 123.096,332.711 120.762,332.185 115.867 C 331.780 112.095,331.579 112.000,324.000 112.000 C 318.133 112.000,317.533 112.067,316.800 112.800 M86.320 113.680 C 87.088 114.448,87.006 169.731,86.236 170.370 C 85.517 170.966,65.045 170.807,64.439 170.200 C 64.174 169.934,64.178 169.198,64.452 168.000 C 64.678 167.010,64.994 163.004,65.154 159.099 C 65.421 152.597,65.520 151.905,66.334 150.899 C 68.386 148.360,69.150 144.767,69.205 137.400 C 69.242 132.415,69.654 130.220,70.775 129.027 C 72.107 127.609,72.734 124.908,73.033 119.301 C 73.183 116.495,73.484 113.975,73.702 113.700 C 74.249 113.010,85.632 112.992,86.320 113.680 M150.320 113.680 C 151.014 114.374,151.014 169.626,150.320 170.320 C 149.634 171.006,126.366 171.006,125.680 170.320 C 124.986 169.626,124.986 114.374,125.680 113.680 C 126.366 112.994,149.634 112.994,150.320 113.680 M214.320 113.680 C 215.014 114.374,215.014 169.626,214.320 170.320 C 213.634 171.006,190.366 171.006,189.680 170.320 C 188.986 169.626,188.986 114.374,189.680 113.680 C 190.366 112.994,213.634 112.994,214.320 113.680 M278.320 113.680 C 279.014 114.374,279.014 169.626,278.320 170.320 C 277.634 171.006,254.366 171.006,253.680 170.320 C 252.986 169.626,252.986 114.374,253.680 113.680 C 254.366 112.994,277.634 112.994,278.320 113.680 M330.297 113.700 C 330.514 113.975,330.796 116.374,330.923 119.031 C 331.200 124.835,331.750 127.241,333.110 128.601 C 334.343 129.834,334.739 131.907,334.789 137.400 C 334.855 144.792,335.617 148.364,337.666 150.899 C 338.480 151.905,338.579 152.597,338.846 159.099 C 339.006 163.004,339.322 167.010,339.548 168.000 C 339.822 169.198,339.826 169.934,339.561 170.200 C 338.955 170.807,318.483 170.966,317.764 170.370 C 316.994 169.731,316.912 114.448,317.680 113.680 C 318.368 112.992,329.752 113.010,330.297 113.700 M63.443 176.517 C 61.109 177.244,60.806 178.037,62.226 179.703 C 62.872 180.462,63.701 181.638,64.068 182.318 C 64.467 183.056,65.526 183.954,66.693 184.546 C 67.770 185.091,68.887 185.823,69.177 186.173 C 70.981 188.346,78.582 188.587,80.347 186.527 C 80.926 185.851,81.954 184.985,82.630 184.604 C 83.307 184.222,84.387 183.092,85.030 182.092 C 85.674 181.092,86.540 179.747,86.956 179.104 C 87.705 177.946,87.704 177.926,86.846 177.067 C 85.795 176.016,66.509 175.562,63.443 176.517 M126.800 176.277 C 124.242 176.778,123.968 178.322,126.019 180.674 C 126.630 181.374,127.244 182.309,127.385 182.752 C 127.525 183.194,128.531 184.104,129.620 184.774 C 130.709 185.444,131.600 186.170,131.600 186.386 C 131.600 188.409,142.613 188.696,144.058 186.712 C 144.493 186.113,145.523 185.245,146.345 184.783 C 147.168 184.320,148.372 183.117,149.020 182.108 C 149.669 181.099,150.540 179.747,150.956 179.104 C 151.705 177.946,151.704 177.926,150.846 177.067 C 149.999 176.220,130.384 175.575,126.800 176.277 M190.800 176.277 C 188.242 176.778,187.968 178.322,190.019 180.674 C 190.630 181.374,191.244 182.309,191.385 182.752 C 191.525 183.194,192.531 184.104,193.620 184.774 C 194.709 185.444,195.600 186.170,195.600 186.386 C 195.600 188.409,206.613 188.696,208.058 186.712 C 208.493 186.113,209.523 185.245,210.345 184.783 C 211.168 184.320,212.372 183.117,213.020 182.108 C 213.669 181.099,214.540 179.747,214.956 179.104 C 215.705 177.946,215.704 177.926,214.846 177.067 C 213.999 176.220,194.384 175.575,190.800 176.277 M254.800 176.277 C 252.242 176.778,251.968 178.322,254.019 180.674 C 254.630 181.374,255.244 182.309,255.385 182.752 C 255.525 183.194,256.531 184.104,257.620 184.774 C 258.709 185.444,259.600 186.170,259.600 186.386 C 259.600 188.409,270.613 188.696,272.058 186.712 C 272.493 186.113,273.523 185.245,274.345 184.783 C 275.168 184.320,276.372 183.117,277.020 182.108 C 277.669 181.099,278.540 179.747,278.956 179.104 C 279.705 177.946,279.704 177.926,278.846 177.067 C 277.999 176.220,258.384 175.575,254.800 176.277 M318.800 176.291 C 316.294 176.747,315.955 177.897,317.734 179.899 C 318.468 180.724,319.407 181.985,319.821 182.700 C 320.234 183.415,320.697 184.000,320.850 184.000 C 321.002 184.000,321.995 184.844,323.056 185.875 C 325.812 188.554,332.008 188.767,334.714 186.275 C 335.217 185.813,336.477 184.976,337.513 184.416 C 338.860 183.689,339.685 182.866,340.404 181.536 C 340.957 180.512,341.765 179.281,342.199 178.801 C 343.144 177.756,342.550 177.102,340.018 176.399 C 338.641 176.016,320.808 175.925,318.800 176.291 M84.710 177.730 C 85.099 177.981,84.979 178.347,84.210 179.261 C 83.655 179.921,83.200 180.748,83.200 181.099 C 83.200 181.995,82.018 183.200,81.139 183.200 C 80.734 183.200,79.675 183.857,78.786 184.660 C 76.576 186.657,73.700 187.017,72.077 185.499 C 70.697 184.208,68.970 183.343,67.054 182.984 C 66.219 182.827,65.478 182.497,65.407 182.249 C 65.336 182.002,65.010 180.932,64.684 179.870 C 64.109 178.002,64.117 177.929,64.945 177.579 C 65.997 177.134,84.002 177.272,84.710 177.730 M148.710 177.730 C 149.099 177.981,148.979 178.347,148.210 179.261 C 147.655 179.921,147.200 180.748,147.200 181.099 C 147.200 181.995,146.018 183.200,145.139 183.200 C 144.734 183.200,143.655 183.875,142.742 184.700 C 141.126 186.160,140.999 186.200,138.000 186.200 C 135.001 186.200,134.874 186.160,133.258 184.700 C 132.345 183.875,131.266 183.200,130.861 183.200 C 129.975 183.200,129.002 182.167,128.601 180.800 C 128.440 180.250,127.942 179.400,127.494 178.910 C 126.640 177.977,126.687 177.915,128.600 177.454 C 129.951 177.129,148.167 177.379,148.710 177.730 M212.710 177.730 C 213.099 177.981,212.979 178.347,212.210 179.261 C 211.655 179.921,211.200 180.748,211.200 181.099 C 211.200 181.995,210.018 183.200,209.139 183.200 C 208.734 183.200,207.655 183.875,206.742 184.700 C 205.126 186.160,204.999 186.200,202.000 186.200 C 199.001 186.200,198.874 186.160,197.258 184.700 C 196.345 183.875,195.266 183.200,194.861 183.200 C 193.975 183.200,193.002 182.167,192.601 180.800 C 192.440 180.250,191.942 179.400,191.494 178.910 C 190.640 177.977,190.687 177.915,192.600 177.454 C 193.951 177.129,212.167 177.379,212.710 177.730 M276.710 177.730 C 277.099 177.981,276.979 178.347,276.210 179.261 C 275.655 179.921,275.200 180.748,275.200 181.099 C 275.200 181.995,274.018 183.200,273.139 183.200 C 272.734 183.200,271.655 183.875,270.742 184.700 C 269.126 186.160,268.999 186.200,266.000 186.200 C 263.001 186.200,262.874 186.160,261.258 184.700 C 260.345 183.875,259.266 183.200,258.861 183.200 C 257.975 183.200,257.002 182.167,256.601 180.800 C 256.440 180.250,255.942 179.400,255.494 178.910 C 254.640 177.977,254.687 177.915,256.600 177.454 C 257.951 177.129,276.167 177.379,276.710 177.730 M339.372 177.638 C 340.379 178.648,338.479 182.579,336.773 183.016 C 334.508 183.597,332.796 184.503,331.864 185.615 C 330.656 187.056,327.344 186.585,325.224 184.669 C 324.329 183.861,323.266 183.200,322.861 183.200 C 321.932 183.200,320.986 182.129,320.644 180.690 C 320.498 180.079,320.020 179.220,319.581 178.781 C 318.757 177.957,318.819 177.877,320.600 177.459 C 321.753 177.189,339.089 177.354,339.372 177.638 M88.682 184.551 C 88.197 185.075,87.495 185.950,87.122 186.497 C 86.739 187.059,85.874 187.605,85.131 187.754 C 84.408 187.898,83.183 188.620,82.408 189.357 C 81.634 190.095,80.129 191.021,79.065 191.417 C 75.684 192.673,75.967 186.754,76.090 253.654 L 76.200 313.417 78.497 317.938 C 81.605 324.055,83.946 326.395,90.063 329.503 L 94.584 331.800 202.000 331.800 L 309.416 331.800 313.937 329.503 C 320.054 326.395,322.395 324.055,325.503 317.938 L 327.800 313.417 327.910 253.654 C 328.033 186.754,328.316 192.677,324.935 191.412 C 323.871 191.013,322.802 190.534,322.561 190.345 C 322.027 189.929,321.027 190.952,320.428 192.527 C 320.131 193.307,320.000 211.231,320.000 250.942 C 320.000 314.380,320.110 311.605,317.493 314.308 C 316.797 315.028,315.947 316.374,315.605 317.300 C 315.094 318.685,314.693 319.091,313.348 319.592 C 312.448 319.926,310.978 320.865,310.080 321.677 C 307.631 323.894,312.433 323.800,202.000 323.800 C 91.567 323.800,96.369 323.894,93.920 321.677 C 93.022 320.865,91.552 319.926,90.652 319.592 C 89.321 319.096,88.904 318.679,88.408 317.348 C 88.074 316.448,87.135 314.978,86.323 314.080 C 84.171 311.702,84.200 312.205,84.200 277.711 L 84.200 246.022 85.100 245.122 L 86.000 244.222 86.900 245.122 L 87.800 246.022 88.000 278.440 L 88.200 310.858 89.463 311.929 C 90.158 312.518,91.026 313.601,91.391 314.335 C 91.757 315.069,92.623 315.969,93.315 316.335 C 94.007 316.701,95.085 317.525,95.710 318.167 C 97.454 319.959,97.214 319.951,149.430 319.976 L 198.261 320.000 199.130 319.074 L 200.000 318.148 200.000 256.060 C 200.000 186.027,200.335 192.574,196.694 191.365 C 195.570 190.992,194.185 190.177,193.617 189.554 C 193.048 188.931,191.866 188.175,190.991 187.873 C 189.951 187.515,189.043 186.803,188.370 185.818 C 186.599 183.225,186.120 183.191,184.029 185.510 C 183.023 186.626,181.570 187.843,180.800 188.215 C 180.030 188.587,178.947 189.314,178.394 189.830 C 176.750 191.365,174.294 192.000,170.000 192.000 C 165.706 192.000,163.250 191.365,161.606 189.830 C 161.053 189.314,159.970 188.587,159.200 188.215 C 158.430 187.843,156.977 186.626,155.971 185.510 C 153.883 183.195,153.408 183.226,151.630 185.801 C 150.968 186.760,150.045 187.480,149.044 187.818 C 148.188 188.108,147.006 188.872,146.417 189.517 C 143.475 192.738,132.548 192.763,129.618 189.556 C 129.048 188.932,127.866 188.175,126.991 187.873 C 125.951 187.515,125.043 186.803,124.370 185.818 C 122.599 183.225,122.120 183.191,120.029 185.510 C 119.023 186.626,117.570 187.843,116.800 188.215 C 116.030 188.587,114.947 189.314,114.394 189.830 C 111.168 192.842,100.827 192.841,97.606 189.828 C 97.053 189.311,95.867 188.521,94.971 188.072 C 94.076 187.624,92.669 186.434,91.845 185.428 C 90.121 183.325,89.881 183.258,88.682 184.551 M216.682 184.551 C 216.197 185.075,215.495 185.950,215.122 186.497 C 214.750 187.044,213.893 187.601,213.218 187.736 C 212.544 187.871,211.376 188.597,210.624 189.349 C 209.872 190.102,208.358 191.015,207.260 191.380 C 203.673 192.571,204.000 186.088,204.000 256.116 L 204.000 318.261 204.926 319.130 L 205.852 320.000 254.626 319.976 C 306.784 319.951,306.546 319.959,308.290 318.167 C 308.915 317.525,309.993 316.701,310.685 316.335 C 311.377 315.969,312.243 315.069,312.609 314.335 C 312.974 313.601,313.842 312.518,314.537 311.929 L 315.800 310.858 315.918 249.329 C 316.041 185.106,316.053 185.822,314.788 184.329 L 314.002 183.400 312.101 185.469 C 311.056 186.607,309.570 187.843,308.800 188.215 C 308.030 188.587,306.947 189.314,306.394 189.830 C 304.750 191.365,302.294 192.000,298.000 192.000 C 293.706 192.000,291.250 191.365,289.606 189.830 C 289.053 189.314,287.970 188.587,287.200 188.215 C 286.430 187.843,284.977 186.626,283.971 185.510 C 281.883 183.195,281.408 183.226,279.630 185.801 C 278.968 186.760,278.045 187.480,277.044 187.818 C 276.188 188.108,275.006 188.872,274.417 189.517 C 271.475 192.738,260.548 192.763,257.618 189.556 C 257.048 188.932,255.866 188.175,254.991 187.873 C 253.951 187.515,253.043 186.803,252.370 185.818 C 250.599 183.225,250.120 183.191,248.029 185.510 C 247.023 186.626,245.570 187.843,244.800 188.215 C 244.030 188.587,242.947 189.314,242.394 189.830 C 239.168 192.842,228.827 192.841,225.606 189.828 C 225.053 189.311,223.867 188.521,222.971 188.072 C 222.076 187.624,220.669 186.434,219.845 185.428 C 218.121 183.325,217.881 183.258,216.682 184.551 M90.400 186.546 C 90.400 187.530,91.951 189.090,93.171 189.334 C 93.970 189.494,94.579 189.985,95.009 190.818 C 96.140 193.005,97.651 193.354,106.000 193.354 C 114.349 193.354,115.860 193.005,116.991 190.818 C 117.421 189.985,118.030 189.494,118.829 189.334 C 120.049 189.090,121.600 187.530,121.600 186.546 C 121.600 185.589,122.209 185.958,122.677 187.199 C 122.996 188.043,123.648 188.620,124.877 189.147 C 125.953 189.609,126.812 190.308,127.113 190.969 C 128.003 192.922,129.810 193.332,137.600 193.345 C 145.770 193.359,147.679 192.980,148.620 191.161 C 149.020 190.389,149.893 189.674,151.041 189.182 C 152.346 188.623,152.952 188.083,153.258 187.206 C 153.687 185.974,154.400 185.562,154.400 186.546 C 154.400 187.530,155.951 189.090,157.171 189.334 C 157.970 189.494,158.579 189.985,159.009 190.818 C 160.140 193.005,161.651 193.354,170.000 193.354 C 178.349 193.354,179.860 193.005,180.991 190.818 C 181.421 189.985,182.030 189.494,182.829 189.334 C 184.049 189.090,185.600 187.530,185.600 186.546 C 185.600 185.589,186.209 185.958,186.677 187.199 C 186.999 188.051,187.650 188.621,188.929 189.169 C 189.976 189.619,190.839 190.291,190.994 190.781 C 191.409 192.090,193.028 192.905,195.726 193.163 L 198.200 193.400 198.301 255.905 L 198.403 318.409 149.282 318.305 L 100.161 318.200 98.415 316.706 C 97.455 315.884,96.076 315.100,95.349 314.964 C 93.836 314.680,93.422 314.265,93.032 312.639 C 92.879 312.001,92.090 310.668,91.277 309.677 L 89.800 307.874 89.600 276.437 C 89.490 259.147,89.244 244.680,89.053 244.289 C 88.259 242.662,84.973 242.227,83.629 243.571 C 82.388 244.812,82.344 246.215,82.475 280.600 C 82.613 316.682,82.547 315.755,85.031 316.887 C 85.678 317.182,86.388 318.039,86.820 319.046 C 87.377 320.345,87.856 320.822,88.975 321.192 C 89.892 321.494,90.639 322.101,91.034 322.865 C 92.457 325.618,82.905 325.400,202.000 325.400 C 320.766 325.400,311.689 325.599,312.887 322.969 C 313.182 322.322,314.039 321.612,315.046 321.180 C 316.345 320.623,316.822 320.144,317.192 319.025 C 317.494 318.108,318.101 317.361,318.865 316.966 C 321.565 315.570,321.388 319.837,321.512 253.280 L 321.625 193.161 323.912 193.280 L 326.200 193.400 326.200 252.468 L 326.200 311.536 325.347 312.468 C 324.174 313.750,323.397 315.417,322.809 317.919 C 322.474 319.346,321.924 320.390,321.125 321.119 C 319.623 322.488,318.488 323.623,317.119 325.125 C 316.390 325.924,315.346 326.474,313.919 326.809 C 311.417 327.397,309.750 328.174,308.468 329.347 L 307.536 330.200 202.044 330.200 L 96.553 330.200 95.330 329.171 C 93.971 328.028,92.897 327.557,89.485 326.611 C 87.622 326.094,86.962 325.676,86.102 324.468 C 85.514 323.642,84.358 322.486,83.532 321.898 C 82.324 321.038,81.906 320.378,81.389 318.515 C 80.443 315.103,79.972 314.029,78.829 312.670 L 77.800 311.447 77.800 252.423 L 77.800 193.400 80.274 193.163 C 82.972 192.905,84.591 192.090,85.006 190.781 C 85.161 190.293,86.020 189.620,87.055 189.176 C 88.347 188.623,88.953 188.080,89.258 187.206 C 89.687 185.974,90.400 185.562,90.400 186.546 M218.400 186.546 C 218.400 187.530,219.951 189.090,221.171 189.334 C 221.970 189.494,222.579 189.985,223.009 190.818 C 224.140 193.005,225.651 193.354,234.000 193.354 C 242.349 193.354,243.860 193.005,244.991 190.818 C 245.421 189.985,246.030 189.494,246.829 189.334 C 248.049 189.090,249.600 187.530,249.600 186.546 C 249.600 185.589,250.209 185.958,250.677 187.199 C 250.996 188.043,251.648 188.620,252.877 189.147 C 253.953 189.609,254.812 190.308,255.113 190.969 C 256.003 192.922,257.810 193.332,265.600 193.345 C 273.770 193.359,275.679 192.980,276.620 191.161 C 277.020 190.389,277.893 189.674,279.041 189.182 C 280.346 188.623,280.952 188.083,281.258 187.206 C 281.687 185.974,282.400 185.562,282.400 186.546 C 282.400 187.530,283.951 189.090,285.171 189.334 C 285.970 189.494,286.579 189.985,287.009 190.818 C 288.140 193.005,289.651 193.354,298.000 193.354 C 306.349 193.354,307.860 193.005,308.991 190.818 C 309.421 189.985,310.030 189.494,310.829 189.334 C 312.049 189.090,313.600 187.530,313.600 186.546 C 313.600 186.246,313.782 186.000,314.004 186.000 C 314.274 186.000,314.373 206.123,314.304 246.920 L 314.200 307.839 312.721 309.567 C 311.908 310.517,311.123 311.858,310.975 312.547 C 310.613 314.245,310.201 314.673,308.651 314.964 C 307.924 315.100,306.545 315.884,305.585 316.706 L 303.839 318.200 254.718 318.305 L 205.597 318.409 205.699 255.905 L 205.800 193.400 208.000 193.161 C 211.180 192.816,211.934 192.487,212.627 191.148 C 213.019 190.389,213.902 189.671,215.041 189.182 C 216.346 188.623,216.952 188.083,217.258 187.206 C 217.687 185.974,218.400 185.562,218.400 186.546 M83.629 195.571 C 80.874 198.326,82.567 205.200,86.000 205.200 C 88.644 205.200,89.200 204.296,89.200 200.000 C 89.200 195.109,86.354 192.846,83.629 195.571 M86.971 197.029 C 88.265 198.322,87.568 203.600,86.103 203.600 C 84.476 203.600,83.681 198.658,85.062 197.131 C 85.871 196.237,86.164 196.222,86.971 197.029 M83.916 211.223 C 81.637 212.551,81.705 235.572,83.991 236.795 C 85.044 237.359,87.309 237.301,88.146 236.689 C 90.255 235.147,90.255 212.853,88.146 211.311 C 87.320 210.707,84.887 210.657,83.916 211.223 M86.640 212.706 C 88.802 214.150,88.652 234.557,86.473 235.394 C 84.146 236.286,82.742 215.695,84.962 213.242 C 85.792 212.324,85.979 212.265,86.640 212.706 M180.455 238.805 C 175.815 239.785,173.574 244.566,174.758 250.959 C 175.634 255.692,178.047 257.365,184.000 257.365 C 190.102 257.365,192.448 255.663,193.282 250.632 C 194.762 241.701,189.541 236.888,180.455 238.805 M216.455 238.805 C 211.815 239.785,209.574 244.566,210.758 250.959 C 211.634 255.692,214.047 257.365,220.000 257.365 C 226.102 257.365,228.448 255.663,229.282 250.632 C 230.762 241.701,225.541 236.888,216.455 238.805 M189.236 242.708 C 193.103 246.575,193.102 249.362,189.232 253.232 C 185.353 257.111,182.577 257.105,178.683 253.211 L 176.200 250.728 176.200 248.000 L 176.200 245.272 178.600 242.892 C 182.649 238.876,185.357 238.829,189.236 242.708 M225.236 242.708 C 229.103 246.575,229.102 249.362,225.232 253.232 C 221.353 257.111,218.577 257.105,214.683 253.211 L 212.200 250.728 212.200 248.000 L 212.200 245.272 214.600 242.892 C 218.649 238.876,221.357 238.829,225.236 242.708 M180.880 244.880 C 180.248 245.512,180.248 250.488,180.880 251.120 C 181.611 251.851,186.203 251.739,186.971 250.971 C 187.739 250.203,187.851 245.611,187.120 244.880 C 186.844 244.604,185.520 244.400,184.000 244.400 C 182.480 244.400,181.156 244.604,180.880 244.880 M216.880 244.880 C 216.604 245.156,216.400 246.480,216.400 248.000 C 216.400 249.520,216.604 250.844,216.880 251.120 C 217.611 251.851,222.203 251.739,222.971 250.971 C 223.739 250.203,223.851 245.611,223.120 244.880 C 222.844 244.604,221.520 244.400,220.000 244.400 C 218.480 244.400,217.156 244.604,216.880 244.880 " stroke="none" fill="#cbcbbb" fill-rule="evenodd"></path></g></svg>